<svg version="1.1" id="Layer_1" xmlns="http://www.w3.org/2000/svg" xmlns:xlink="http://www.w3.org/1999/xlink" x="0px" y="0px"
	 width="100%" viewBox="0 0 500 500" enable-background="new 0 0 500 500" xml:space="preserve">
<path fill="#A6A6A6" opacity="1.000000" stroke="none" 
	d="
M235.000000,501.000000 
	C156.666687,501.000000 78.833374,501.000000 1.000042,501.000000 
	C1.000028,334.333405 1.000028,167.666779 1.000014,1.000131 
	C167.666565,1.000087 334.333130,1.000087 500.999756,1.000044 
	C500.999847,167.666519 500.999847,334.333038 500.999939,500.999786 
	C412.500000,501.000000 324.000000,501.000000 235.000000,501.000000 
M103.075089,143.423859 
	C102.693527,143.292023 102.311966,143.160187 101.992912,143.009048 
	C101.992912,143.009048 101.982124,143.073563 101.914223,142.356018 
	C99.959389,142.258011 98.004562,142.160004 95.455017,142.355545 
	C93.847908,143.972031 91.892769,145.368805 90.705009,147.250061 
	C88.108383,151.362823 85.870087,155.705048 83.595001,160.011444 
	C83.413261,160.355453 84.134583,161.126556 84.338486,161.732086 
	C86.370270,167.765854 91.403503,167.078033 96.262070,167.619980 
	C95.446007,170.401260 94.629944,173.182556 93.362701,176.484848 
	C92.220474,179.356369 91.078239,182.227875 89.727707,185.651047 
	C87.816521,190.244720 85.532333,194.730652 84.160294,199.480072 
	C83.527222,201.671494 84.677086,204.377960 84.983345,207.599564 
	C86.062141,209.377106 86.721802,212.010193 88.294067,212.780457 
	C94.313362,215.729324 100.578018,218.209763 106.875481,220.526947 
	C107.945091,220.920502 109.625580,219.653854 111.757553,219.052185 
	C112.525032,218.811752 113.343689,218.672638 114.051956,218.314987 
	C120.118362,215.251541 120.703682,208.558960 124.044632,203.079086 
	C125.829018,198.874405 127.613403,194.669724 130.018036,190.326721 
	C131.500534,193.033188 132.983047,195.739670 134.679214,199.085785 
	C135.467896,200.398590 136.256577,201.711395 136.974976,203.022217 
	C136.974976,203.022217 136.972168,202.951981 137.140366,203.352921 
	C137.339157,203.569580 137.572388,203.738770 138.021179,204.596725 
	C139.367828,207.770584 140.261887,211.266739 142.214630,214.008987 
	C143.598083,215.951797 146.412704,216.875473 148.712692,218.890961 
	C150.408829,219.460815 152.409409,220.912231 153.749023,220.449646 
	C159.918137,218.319229 166.008713,215.873383 171.879761,213.029373 
	C173.352615,212.315872 173.908401,209.709229 175.255859,207.313034 
	C175.776550,204.806259 177.292023,201.985657 176.619888,199.855194 
	C175.003937,194.733078 172.362396,189.934540 170.337479,184.400513 
	C169.287964,181.268448 168.238434,178.136398 166.832062,174.371796 
	C166.193741,172.883530 165.652969,171.343811 164.899933,169.916046 
	C161.886139,164.201843 159.340988,158.041977 151.781296,155.558273 
	C151.609436,154.681854 151.437576,153.805435 151.848770,152.787827 
	C151.606689,151.852539 151.364609,150.917252 150.473465,149.883301 
	C149.217834,149.768021 147.871323,149.308182 146.725800,149.610352 
	C144.452393,150.209991 142.289780,151.229706 139.434448,152.441864 
	C130.587814,154.609909 121.869522,154.962311 113.358421,150.075317 
	C112.884651,149.729233 112.410881,149.383133 111.992554,149.005127 
	C111.992554,149.005127 111.985825,149.068726 111.986504,148.450928 
	C111.634621,148.305893 111.282745,148.160858 110.996132,148.004898 
	C110.996132,148.004898 110.992836,148.070984 110.911942,147.373795 
	C110.252922,147.258682 109.593895,147.143585 108.997200,147.005875 
	C108.997200,147.005875 109.006248,147.071548 108.790451,146.365189 
	C107.171181,145.920837 105.551910,145.476471 103.991982,145.004623 
	C103.991982,145.004623 103.971550,145.066742 104.063545,144.400024 
	C103.686897,144.274826 103.310249,144.149628 102.994415,144.005722 
	C102.994415,144.005722 102.976585,144.066803 103.075089,143.423859 
M427.311340,287.450012 
	C426.388794,286.935242 425.466278,286.420502 424.142273,285.327454 
	C417.154541,284.010406 413.690826,286.559509 413.590485,293.855377 
	C414.075592,294.969635 414.560699,296.083893 415.071747,297.870270 
	C415.051147,298.543579 415.030548,299.216919 414.609436,300.550110 
	C413.966095,300.686829 413.254822,300.692352 412.691589,300.983887 
	C410.677429,302.026367 408.713440,303.165863 406.730469,304.268677 
	C408.395081,306.054077 409.770935,308.316193 411.779968,309.533020 
	C417.211304,312.822784 423.093384,315.063751 430.347473,315.080536 
	C434.308838,320.275085 438.476807,318.944611 442.568756,315.415710 
	C441.739410,312.147461 440.886475,308.786255 439.836914,304.717285 
	C439.973755,304.071747 440.031311,303.396606 440.259674,302.785278 
	C442.491394,296.812134 442.456024,290.912842 439.363159,285.273529 
	C438.645966,283.965912 436.934509,282.111420 435.989105,282.276398 
	C434.559998,282.525818 433.280060,284.221283 432.167114,285.502350 
	C431.290894,286.510864 430.762482,287.821503 429.528564,288.937347 
	C428.890625,288.635132 428.252655,288.332947 427.311340,287.450012 
M410.097992,258.684540 
	C414.591888,250.147720 419.453094,241.779099 423.463623,233.020935 
	C426.677704,226.001907 423.842834,222.167099 416.095642,222.002502 
	C409.436127,221.860992 402.768341,221.851257 396.109497,222.007782 
	C389.360016,222.166458 386.886963,225.220123 387.672241,231.826630 
	C387.796021,232.867966 387.504913,233.958588 387.369446,235.415878 
	C392.055511,236.415115 396.819519,237.430969 401.882568,238.510574 
	C396.261475,249.136673 390.683075,259.682068 384.688721,271.013763 
	C381.468994,260.271088 372.794464,264.114197 366.166656,262.636292 
	C371.326935,252.774734 376.287323,243.179428 381.416779,233.675385 
	C381.918152,232.746353 383.460449,232.379105 384.267212,231.900726 
	C383.802704,230.795410 382.908203,229.515518 382.759369,228.154083 
	C382.307861,224.024109 379.709686,222.240219 376.045258,222.147369 
	C368.175537,221.947937 360.292389,221.918335 352.424591,222.152069 
	C348.247101,222.276169 345.463806,224.762390 345.337860,229.074432 
	C345.212280,233.374268 347.306671,236.427490 351.839691,237.165192 
	C354.403442,237.582413 357.004700,237.769348 359.992950,238.105453 
	C359.302979,239.632462 358.825317,240.840057 358.228821,241.985779 
	C353.774261,250.541672 348.943787,258.924133 344.936462,267.683594 
	C341.705688,274.745575 344.394073,278.546326 352.179810,278.821838 
	C358.834229,279.057281 365.504517,278.804688 372.164856,278.927063 
	C377.609711,279.027130 382.535706,278.373657 384.865906,270.712006 
	C386.261566,278.394379 391.004242,278.889862 396.024811,278.898193 
	C399.522644,278.904022 403.023438,278.814667 406.517090,278.935913 
	C408.334808,278.999023 410.139221,279.431244 411.953125,279.670380 
	C412.023041,279.679626 412.118622,279.303467 412.219849,279.293945 
	C414.017120,279.124969 415.818604,279.001007 417.616272,278.835846 
	C423.224915,278.320557 426.014923,275.653870 425.957153,270.883606 
	C425.899628,266.131470 423.160797,263.571503 417.395721,263.186523 
	C414.481720,262.991882 411.543976,263.152496 407.893768,263.152496 
	C408.784851,261.373932 409.289459,260.366791 410.097992,258.684540 
M315.028381,234.642548 
	C315.028137,233.976334 315.039124,233.309906 315.025970,232.643951 
	C314.879333,225.235504 312.025085,222.036942 305.514404,221.979172 
	C298.930237,221.920761 295.788727,225.078415 295.714996,232.383972 
	C295.617493,242.040237 295.480591,251.713913 295.935089,261.352997 
	C296.408234,271.387421 302.398560,277.645660 312.380951,278.988068 
	C316.126068,279.491730 320.037323,279.515320 323.789551,279.064423 
	C333.607544,277.884613 339.478851,271.863831 339.983704,261.891052 
	C340.488312,251.923401 340.379822,241.915192 340.253326,231.928421 
	C340.168243,225.213486 336.860077,221.919388 331.022675,222.006760 
	C325.242554,222.093246 322.196503,225.551697 322.124207,232.270187 
	C322.030945,240.929459 322.223236,249.599564 321.807526,258.241669 
	C321.714874,260.167664 319.603088,261.996552 318.420929,263.870117 
	C317.330688,262.109100 315.390533,260.391479 315.298065,258.579559 
	C314.908112,250.937302 315.069000,243.266953 315.028381,234.642548 
M90.640289,221.969406 
	C80.991142,222.008911 78.000465,224.013290 77.825958,231.835312 
	C77.544075,244.470688 77.590576,257.122650 77.897102,269.757935 
	C78.047218,275.945709 81.554977,278.863281 87.471733,278.876709 
	C93.396263,278.890198 96.549377,275.968903 97.142799,269.804810 
	C97.443604,266.680237 96.504456,262.576050 98.154778,260.690582 
	C99.714951,258.908142 103.936081,259.480682 106.977478,258.962585 
	C111.189255,258.245117 113.593040,255.700287 113.453285,251.447296 
	C113.317581,247.317520 111.023544,244.600327 106.765839,244.021820 
	C104.629517,243.731522 102.384201,244.023895 100.319130,243.518097 
	C99.226471,243.250473 98.414322,241.837555 97.475533,240.941681 
	C98.456863,240.083954 99.341026,238.674591 100.439369,238.481125 
	C102.870369,238.052917 105.420090,238.362076 107.901543,238.144363 
	C113.864922,237.621155 116.418938,234.981659 116.204849,229.776428 
	C116.012550,225.101105 112.949768,222.211380 107.586388,222.038971 
	C102.264008,221.867859 96.932503,221.980927 90.640289,221.969406 
M150.921738,253.327393 
	C148.481476,258.057434 145.738098,262.659363 143.672501,267.547729 
	C140.631958,274.743347 143.040833,278.527863 150.792297,278.803589 
	C158.445206,279.075836 166.118698,279.005737 173.776749,278.820557 
	C179.723297,278.676788 182.839325,275.755371 182.763062,270.976196 
	C182.692612,266.562225 179.453171,263.564789 174.031540,263.186066 
	C171.155090,262.985107 168.253052,263.150452 164.545761,263.150452 
	C167.023407,258.511780 169.003693,254.892700 170.901718,251.231003 
	C174.115845,245.030228 177.659744,238.962769 180.355484,232.541412 
	C183.091354,226.024460 180.645157,222.320404 173.844681,222.074814 
	C166.525513,221.810516 159.187393,221.932892 151.860779,222.065170 
	C147.489410,222.144104 144.549286,224.254883 144.102005,228.882980 
	C143.684692,233.200882 146.211975,236.341995 150.897720,237.228531 
	C153.404358,237.702789 155.982025,237.801666 159.024231,238.122269 
	C156.241745,243.326248 153.744675,247.996460 150.921738,253.327393 
M210.425293,221.964905 
	C205.098114,221.979385 199.765686,221.852280 194.445251,222.049072 
	C189.363861,222.237030 186.497223,224.859604 186.272049,229.048386 
	C186.035873,233.441666 188.763748,236.525314 193.797363,237.344406 
	C196.035828,237.708649 198.319077,237.797684 201.074631,238.058228 
	C200.185638,239.921158 199.530197,241.401367 198.786438,242.835754 
	C194.425354,251.246414 189.679520,259.481995 185.787109,268.103302 
	C182.814102,274.688263 185.426102,278.484985 192.628281,278.757904 
	C200.606644,279.060242 208.611465,279.018188 216.593048,278.761719 
	C222.228668,278.580627 225.001678,275.672852 224.953934,270.903534 
	C224.906281,266.144745 222.180328,263.583862 216.415405,263.193207 
	C213.497665,262.995483 210.555466,263.158661 206.789566,263.158661 
	C211.669083,254.027420 216.174881,245.749435 220.536484,237.396164 
	C226.564407,225.851624 224.249954,222.004166 210.425293,221.964905 
M291.000885,238.291214 
	C291.170044,229.171112 287.929840,224.387360 278.889099,223.010971 
	C271.553223,221.894089 263.990540,222.069397 256.527374,222.047928 
	C250.475204,222.030502 247.272690,225.229050 247.175385,231.353317 
	C246.971924,244.157455 246.927582,256.967133 247.054733,269.772156 
	C247.114868,275.828461 249.914566,278.593384 256.016022,278.813660 
	C261.827362,279.023499 267.778595,279.512787 273.437073,278.537506 
	C278.299500,277.699432 283.806274,276.039001 287.318939,272.855988 
	C295.254791,265.664978 294.311279,255.942429 287.649231,248.742615 
	C288.818542,245.330063 289.876801,242.241516 291.000885,238.291214 
M130.276993,278.841614 
	C135.012711,278.427826 138.514084,276.152863 138.596222,271.208984 
	C138.828522,257.223389 138.798904,243.228043 138.538223,229.242767 
	C138.455643,224.812210 135.355576,222.523621 130.969131,222.048706 
	C123.099930,221.196701 119.229271,224.390167 119.142822,232.282440 
	C119.011406,244.280182 119.023628,256.281219 119.137733,268.279297 
	C119.207413,275.605347 121.787491,278.106842 130.276993,278.841614 
z"/>
<path fill="#EFDDB3" opacity="1.000000" stroke="none" 
	d="
M113.483994,150.607391 
	C121.869522,154.962311 130.587814,154.609909 139.909256,152.529999 
	C140.785614,152.881958 141.267242,153.446854 141.576736,153.364548 
	C146.432297,152.072998 147.394669,154.226532 146.253494,158.450317 
	C146.048279,159.209854 146.219284,160.071045 146.039749,161.195343 
	C145.285736,162.025909 144.722214,162.562515 144.129288,163.064407 
	C139.780838,166.745300 135.426498,170.419235 131.177673,174.425644 
	C135.168961,177.971725 130.778107,180.963028 130.696686,184.192108 
	C126.860077,184.498932 123.986710,185.902740 121.479767,188.794495 
	C118.127777,187.639954 115.160294,186.435120 112.375984,184.964859 
	C111.459335,181.268890 110.269264,177.863342 109.308105,174.394379 
	C108.966713,173.162201 108.609734,171.303024 109.240150,170.540192 
	C112.267517,166.876999 110.643608,163.059067 110.360519,159.073807 
	C109.759315,158.883224 108.911774,158.866653 107.689522,158.909760 
	C104.572662,160.333664 100.828629,160.097809 99.928177,164.361877 
	C99.694557,165.468155 97.465881,166.153122 96.153595,167.031616 
	C91.403503,167.078033 86.370270,167.765854 84.338486,161.732086 
	C84.134583,161.126556 83.413261,160.355453 83.595001,160.011444 
	C85.870087,155.705048 88.108383,151.362823 90.705009,147.250061 
	C91.892769,145.368805 93.847908,143.972031 96.044670,142.441895 
	C98.416924,142.710022 100.199524,142.891800 101.982124,143.073563 
	C101.982124,143.073563 101.992912,143.009048 101.988876,143.301117 
	C102.315430,143.751053 102.646004,143.908920 102.976585,144.066803 
	C102.976585,144.066803 102.994415,144.005722 103.022064,144.282745 
	C103.356995,144.728775 103.664276,144.897751 103.971550,145.066742 
	C103.971550,145.066742 103.991982,145.004623 103.959518,145.344818 
	C103.767860,146.295563 103.608658,146.906128 103.331566,147.707474 
	C103.294609,148.159348 103.375542,148.420425 103.456474,148.681519 
	C103.663292,148.483246 103.870117,148.284988 104.437408,148.054550 
	C106.200676,147.705444 107.603462,147.388504 109.006248,147.071548 
	C109.006248,147.071548 108.997200,147.005875 109.086586,147.311432 
	C109.781593,147.768311 110.387215,147.919647 110.992836,148.070984 
	C110.992836,148.070984 110.996132,148.004898 111.014091,148.285873 
	C111.349976,148.734146 111.667900,148.901428 111.985825,149.068726 
	C111.985825,149.068726 111.992554,149.005127 111.945358,149.339935 
	C112.426773,149.985611 112.955383,150.296509 113.483994,150.607391 
M112.395927,159.898453 
	C112.466560,159.681366 112.537193,159.464294 112.607826,159.247208 
	C112.397308,159.318954 112.186790,159.390701 112.395927,159.898453 
z"/>
<path fill="#7E3A0B" opacity="1.000000" stroke="none" 
	d="
M409.946045,259.022095 
	C409.289459,260.366791 408.784851,261.373932 407.893768,263.152496 
	C411.543976,263.152496 414.481720,262.991882 417.395721,263.186523 
	C423.160797,263.571503 425.899628,266.131470 425.957153,270.883606 
	C426.014923,275.653870 423.224915,278.320557 417.616272,278.835846 
	C415.818604,279.001007 414.017120,279.124969 412.219849,279.293945 
	C412.118622,279.303467 412.023041,279.679626 411.953125,279.670380 
	C410.139221,279.431244 408.334808,278.999023 406.517090,278.935913 
	C403.023438,278.814667 399.522644,278.904022 396.024811,278.898193 
	C391.004242,278.889862 386.261566,278.394379 384.865906,270.712006 
	C382.535706,278.373657 377.609711,279.027130 372.164856,278.927063 
	C365.504517,278.804688 358.834229,279.057281 352.179810,278.821838 
	C344.394073,278.546326 341.705688,274.745575 344.936462,267.683594 
	C348.943787,258.924133 353.774261,250.541672 358.228821,241.985779 
	C358.825317,240.840057 359.302979,239.632462 359.992950,238.105453 
	C357.004700,237.769348 354.403442,237.582413 351.839691,237.165192 
	C347.306671,236.427490 345.212280,233.374268 345.337860,229.074432 
	C345.463806,224.762390 348.247101,222.276169 352.424591,222.152069 
	C360.292389,221.918335 368.175537,221.947937 376.045258,222.147369 
	C379.709686,222.240219 382.307861,224.024109 382.759369,228.154083 
	C382.908203,229.515518 383.802704,230.795410 384.267212,231.900726 
	C383.460449,232.379105 381.918152,232.746353 381.416779,233.675385 
	C376.287323,243.179428 371.326935,252.774734 366.166656,262.636292 
	C372.794464,264.114197 381.468994,260.271088 384.688721,271.013763 
	C390.683075,259.682068 396.261475,249.136673 401.882568,238.510574 
	C396.819519,237.430969 392.055511,236.415115 387.369446,235.415878 
	C387.504913,233.958588 387.796021,232.867966 387.672241,231.826630 
	C386.886963,225.220123 389.360016,222.166458 396.109497,222.007782 
	C402.768341,221.851257 409.436127,221.860992 416.095642,222.002502 
	C423.842834,222.167099 426.677704,226.001907 423.463623,233.020935 
	C419.453094,241.779099 414.591888,250.147720 409.946045,259.022095 
M361.140656,242.642319 
	C356.805481,250.707916 352.324829,258.699646 348.181458,266.862579 
	C344.895996,273.335358 346.520172,275.897583 353.579529,275.960327 
	C360.576263,276.022522 367.574249,276.001312 374.571198,275.949371 
	C377.798340,275.925354 380.811188,275.179688 380.939728,271.218994 
	C381.079102,266.924255 377.941772,266.110443 374.505859,266.055420 
	C370.274750,265.987671 366.041779,266.039246 361.017578,266.039246 
	C362.547119,263.151489 363.616364,261.123657 364.693817,259.100220 
	C369.310760,250.429840 374.118713,241.854324 378.482086,233.058212 
	C381.369873,227.236664 379.859955,225.014191 373.500183,224.906021 
	C367.171356,224.798386 360.839020,224.866394 354.508484,224.902008 
	C351.223206,224.920486 348.274292,225.807739 348.222473,229.717529 
	C348.169983,233.679352 351.336060,234.520325 354.453247,234.731079 
	C357.733978,234.952896 361.041290,234.780777 365.250153,234.780777 
	C363.744324,237.675690 362.621979,239.833344 361.140656,242.642319 
M415.213013,266.026978 
	C411.437653,266.026978 407.662262,266.026978 403.067596,266.026978 
	C404.477356,263.321014 405.512451,261.296844 406.580566,259.290222 
	C411.192291,250.626419 415.984467,242.053177 420.372223,233.277588 
	C423.351654,227.318695 421.964966,225.044647 415.756348,224.917435 
	C409.433380,224.787827 403.105713,224.866165 396.780243,224.887634 
	C393.563080,224.898544 390.495514,225.543671 390.228058,229.442947 
	C389.956055,233.408432 393.018860,234.470245 396.167877,234.704514 
	C399.567047,234.957413 402.999542,234.761719 407.133759,234.761719 
	C406.093323,236.913116 405.505280,238.245377 404.820709,239.526031 
	C399.880432,248.768341 394.750885,257.914459 390.027130,267.265747 
	C386.914001,273.428589 388.614807,275.891724 395.498840,275.959503 
	C402.323273,276.026672 409.148987,275.993652 415.973969,275.964905 
	C419.297943,275.950928 422.704346,275.580322 422.923065,271.322449 
	C423.160278,266.704956 419.693512,266.131531 415.213013,266.026978 
z"/>
<path fill="#7F3907" opacity="1.000000" stroke="none" 
	d="
M315.028381,235.124710 
	C315.069000,243.266953 314.908112,250.937302 315.298065,258.579559 
	C315.390533,260.391479 317.330688,262.109100 318.420929,263.870117 
	C319.603088,261.996552 321.714874,260.167664 321.807526,258.241669 
	C322.223236,249.599564 322.030945,240.929459 322.124207,232.270187 
	C322.196503,225.551697 325.242554,222.093246 331.022675,222.006760 
	C336.860077,221.919388 340.168243,225.213486 340.253326,231.928421 
	C340.379822,241.915192 340.488312,251.923401 339.983704,261.891052 
	C339.478851,271.863831 333.607544,277.884613 323.789551,279.064423 
	C320.037323,279.515320 316.126068,279.491730 312.380951,278.988068 
	C302.398560,277.645660 296.408234,271.387421 295.935089,261.352997 
	C295.480591,251.713913 295.617493,242.040237 295.714996,232.383972 
	C295.788727,225.078415 298.930237,221.920761 305.514404,221.979172 
	C312.025085,222.036942 314.879333,225.235504 315.025970,232.643951 
	C315.039124,233.309906 315.028137,233.976334 315.028381,235.124710 
M334.089722,270.450745 
	C335.132111,267.515686 336.957672,264.611420 337.074432,261.639984 
	C337.472595,251.510086 337.280487,241.356552 337.289001,231.212021 
	C337.292328,227.238037 335.521759,224.908600 331.294128,224.922836 
	C326.906342,224.937622 324.979156,227.265900 324.982300,231.499878 
	C324.987122,237.994125 325.035583,244.489685 324.923218,250.982208 
	C324.857239,254.793396 325.124115,258.783875 324.050293,262.333374 
	C323.484039,264.205048 320.342865,266.455261 318.399841,266.422577 
	C316.512177,266.390808 314.132812,263.977600 312.971436,262.016632 
	C311.977112,260.337769 312.249451,257.820557 312.224915,255.671097 
	C312.133636,247.678864 312.120667,239.685287 312.140045,231.692383 
	C312.150116,227.542480 310.519012,225.086914 306.049988,224.875946 
	C301.708527,224.671036 298.642456,226.144547 298.630127,230.829620 
	C298.601227,241.799759 298.383698,252.810577 299.290771,263.717773 
	C299.575073,267.136719 302.532043,271.155640 305.432526,273.374847 
	C312.998077,279.163361 326.501801,277.652252 334.089722,270.450745 
z"/>
<path fill="#F7B12F" opacity="1.000000" stroke="none" 
	d="
M123.794472,203.521118 
	C120.703682,208.558960 120.118362,215.251541 114.051956,218.314987 
	C113.343689,218.672638 112.525032,218.811752 111.061523,218.939713 
	C104.907501,216.517075 99.449501,214.206909 93.807175,211.684738 
	C93.100235,211.299301 92.577629,211.125870 92.035126,210.978241 
	C92.015236,211.004028 92.029625,210.940765 91.837372,210.717331 
	C91.094101,210.327332 90.543083,210.160767 89.996834,209.995422 
	C90.001602,209.996628 90.007362,210.004059 90.002388,209.612244 
	C89.624565,205.448364 88.557777,201.577011 89.079292,197.932968 
	C89.574219,194.474731 91.732033,191.254486 93.441231,187.932037 
	C93.911064,187.913300 94.098289,187.892120 94.556381,188.068558 
	C101.602936,191.339676 108.378616,194.413147 115.447784,197.636749 
	C118.508034,199.582626 123.756210,197.893433 123.794472,203.521118 
z"/>
<path fill="#843808" opacity="1.000000" stroke="none" 
	d="
M91.122643,221.969391 
	C96.932503,221.980927 102.264008,221.867859 107.586388,222.038971 
	C112.949768,222.211380 116.012550,225.101105 116.204849,229.776428 
	C116.418938,234.981659 113.864922,237.621155 107.901543,238.144363 
	C105.420090,238.362076 102.870369,238.052917 100.439369,238.481125 
	C99.341026,238.674591 98.456863,240.083954 97.475540,240.941681 
	C98.414322,241.837555 99.226471,243.250473 100.319130,243.518097 
	C102.384201,244.023895 104.629517,243.731522 106.765839,244.021820 
	C111.023544,244.600327 113.317581,247.317520 113.453285,251.447296 
	C113.593040,255.700287 111.189255,258.245117 106.977478,258.962585 
	C103.936081,259.480682 99.714951,258.908142 98.154778,260.690582 
	C96.504456,262.576050 97.443604,266.680237 97.142799,269.804810 
	C96.549377,275.968903 93.396263,278.890198 87.471733,278.876709 
	C81.554977,278.863281 78.047218,275.945709 77.897102,269.757935 
	C77.590576,257.122650 77.544075,244.470688 77.825958,231.835312 
	C78.000465,224.013290 80.991142,222.008911 91.122643,221.969391 
M90.633789,275.328186 
	C91.791473,273.322632 93.529396,271.434387 93.964310,269.282745 
	C94.546631,266.401825 94.292122,263.304626 94.080185,260.322845 
	C93.843178,256.988403 95.215775,255.842865 98.434006,256.089142 
	C100.914062,256.278931 103.625610,256.650574 105.856384,255.866455 
	C107.610237,255.249985 109.911789,252.985764 109.903549,251.464676 
	C109.895325,249.946594 107.495117,248.175308 105.793945,247.038010 
	C104.858322,246.412537 103.202568,246.836273 101.871437,246.834900 
	C93.516151,246.826279 93.614990,246.836227 94.071663,238.610443 
	C94.213379,236.057922 95.067680,234.999634 97.636200,235.101593 
	C100.795311,235.227036 103.962761,235.151855 107.126579,235.146393 
	C110.514854,235.140549 113.077026,234.117569 113.112946,230.122574 
	C113.149025,226.109756 110.516823,225.028976 107.190887,224.984695 
	C100.864235,224.900436 94.535072,224.885239 88.208344,224.959457 
	C82.355255,225.028122 80.927444,226.484329 80.898117,232.482513 
	C80.840317,244.305191 80.848160,256.128479 80.891891,267.951233 
	C80.916435,274.585022 82.910202,276.235901 90.633789,275.328186 
z"/>
<path fill="#7F370B" opacity="1.000000" stroke="none" 
	d="
M151.084656,252.997040 
	C153.744675,247.996460 156.241745,243.326248 159.024231,238.122269 
	C155.982025,237.801666 153.404358,237.702789 150.897720,237.228531 
	C146.211975,236.341995 143.684692,233.200882 144.102005,228.882980 
	C144.549286,224.254883 147.489410,222.144104 151.860779,222.065170 
	C159.187393,221.932892 166.525513,221.810516 173.844681,222.074814 
	C180.645157,222.320404 183.091354,226.024460 180.355484,232.541412 
	C177.659744,238.962769 174.115845,245.030228 170.901718,251.231003 
	C169.003693,254.892700 167.023407,258.511780 164.545761,263.150452 
	C168.253052,263.150452 171.155090,262.985107 174.031540,263.186066 
	C179.453171,263.564789 182.692612,266.562225 182.763062,270.976196 
	C182.839325,275.755371 179.723297,278.676788 173.776749,278.820557 
	C166.118698,279.005737 158.445206,279.075836 150.792297,278.803589 
	C143.040833,278.527863 140.631958,274.743347 143.672501,267.547729 
	C145.738098,262.659363 148.481476,258.057434 151.084656,252.997040 
M169.353546,275.975800 
	C170.186798,275.975525 171.020279,275.962891 171.853287,275.977112 
	C175.526703,276.039856 179.610794,275.810730 179.692261,271.157410 
	C179.780762,266.101196 175.486252,266.011627 171.668839,266.024902 
	C167.953430,266.037842 164.237946,266.027710 159.760498,266.027710 
	C162.846222,260.220367 165.403366,255.390762 167.976456,250.569672 
	C171.034637,244.839676 174.314545,239.216461 177.113586,233.362976 
	C179.876648,227.584671 178.290070,225.032730 172.280136,224.947632 
	C166.115540,224.860336 159.948257,224.880936 153.783142,224.947037 
	C150.693451,224.980164 147.407303,225.226547 147.098541,229.281158 
	C146.766724,233.638474 150.194733,234.415588 153.416763,234.730576 
	C156.485672,235.030594 159.606918,234.795197 163.710831,234.795197 
	C162.261093,237.859192 161.375946,239.932968 160.323853,241.918243 
	C155.878448,250.306732 151.225311,258.589294 146.957184,267.066223 
	C143.636642,273.661102 145.122681,275.885284 152.394913,275.962860 
	C157.726929,276.019714 163.060059,275.975128 169.353546,275.975800 
z"/>
<path fill="#7F370B" opacity="1.000000" stroke="none" 
	d="
M210.909302,221.964905 
	C224.249954,222.004166 226.564407,225.851624 220.536484,237.396164 
	C216.174881,245.749435 211.669083,254.027420 206.789566,263.158661 
	C210.555466,263.158661 213.497665,262.995483 216.415405,263.193207 
	C222.180328,263.583862 224.906281,266.144745 224.953934,270.903534 
	C225.001678,275.672852 222.228668,278.580627 216.593048,278.761719 
	C208.611465,279.018188 200.606644,279.060242 192.628281,278.757904 
	C185.426102,278.484985 182.814102,274.688263 185.787109,268.103302 
	C189.679520,259.481995 194.425354,251.246414 198.786438,242.835754 
	C199.530197,241.401367 200.185638,239.921158 201.074631,238.058228 
	C198.319077,237.797684 196.035828,237.708649 193.797363,237.344406 
	C188.763748,236.525314 186.035873,233.441666 186.272049,229.048386 
	C186.497223,224.859604 189.363861,222.237030 194.445251,222.049072 
	C199.765686,221.852280 205.098114,221.979385 210.909302,221.964905 
M208.714600,266.035339 
	C206.783249,266.035339 204.851913,266.035339 202.001678,266.035339 
	C206.313293,257.954773 210.256882,250.699799 214.065323,243.374573 
	C216.283661,239.107758 218.427292,234.789719 220.335312,230.378296 
	C221.624115,227.398544 220.179565,225.223877 217.089722,225.133179 
	C209.280823,224.903946 201.445847,224.815689 193.656952,225.275024 
	C192.075317,225.368301 189.796310,227.943192 189.445023,229.695953 
	C189.200043,230.918335 191.414169,233.264175 193.042526,234.062927 
	C194.852142,234.950607 197.239594,234.732117 199.383392,234.845963 
	C201.418411,234.954041 203.463684,234.869217 206.302628,234.869217 
	C203.564743,240.000122 201.395569,244.084595 199.208435,248.159454 
	C195.827225,254.459045 192.257324,260.665039 189.096054,267.072815 
	C186.046555,273.254089 187.720657,275.886078 194.402893,275.956329 
	C201.223022,276.028015 208.044495,275.982849 214.865341,275.969055 
	C218.425964,275.961853 221.966782,275.445801 221.867355,270.882446 
	C221.767776,266.312897 218.110733,266.061127 214.621628,266.031677 
	C212.958130,266.017639 211.294388,266.031403 208.714600,266.035339 
z"/>
<path fill="#FAF9F9" opacity="1.000000" stroke="none" 
	d="
M429.614410,314.997925 
	C423.093384,315.063751 417.211304,312.822784 411.779968,309.533020 
	C409.770935,308.316193 408.395081,306.054077 406.730469,304.268677 
	C408.713440,303.165863 410.677429,302.026367 412.691589,300.983887 
	C413.254822,300.692352 413.966095,300.686829 415.105743,300.296844 
	C416.089478,300.321014 416.576874,300.598480 417.287170,301.007416 
	C418.167084,301.335114 418.824127,301.531311 419.938599,301.798706 
	C426.556671,302.416138 429.699066,299.885559 430.312439,293.947723 
	C430.396301,292.790070 430.187256,291.804871 429.997620,290.516174 
	C430.037903,289.807739 430.058746,289.402832 430.079590,288.997925 
	C430.762482,287.821503 431.290894,286.510864 432.167114,285.502350 
	C433.280060,284.221283 434.559998,282.525818 435.989105,282.276398 
	C436.934509,282.111420 438.645966,283.965912 439.363159,285.273529 
	C442.456024,290.912842 442.491394,296.812134 440.259674,302.785278 
	C440.031311,303.396606 439.973755,304.071747 439.654663,305.321411 
	C437.562866,309.594727 435.340576,312.840759 430.642487,313.192810 
	C430.256897,313.221680 429.955139,314.369843 429.614410,314.997925 
z"/>
<path fill="#7F3907" opacity="1.000000" stroke="none" 
	d="
M290.967987,238.722076 
	C289.876801,242.241516 288.818542,245.330063 287.649231,248.742615 
	C294.311279,255.942429 295.254791,265.664978 287.318939,272.855988 
	C283.806274,276.039001 278.299500,277.699432 273.437073,278.537506 
	C267.778595,279.512787 261.827362,279.023499 256.016022,278.813660 
	C249.914566,278.593384 247.114868,275.828461 247.054733,269.772156 
	C246.927582,256.967133 246.971924,244.157455 247.175385,231.353317 
	C247.272690,225.229050 250.475204,222.030502 256.527374,222.047928 
	C263.990540,222.069397 271.553223,221.894089 278.889099,223.010971 
	C287.929840,224.387360 291.170044,229.171112 290.967987,238.722076 
M289.810425,261.330719 
	C289.910767,255.040344 287.038147,250.976028 280.095673,249.494507 
	C287.155487,245.249847 290.063263,239.354828 287.491302,232.265488 
	C284.952057,225.266434 278.084045,225.208237 271.882996,224.967941 
	C266.899689,224.774841 261.904022,224.914337 256.914124,224.873276 
	C252.456131,224.836594 250.030396,226.919434 250.014343,231.469482 
	C249.969711,244.111481 249.963654,256.753632 249.926132,269.395691 
	C249.913300,273.716522 252.144073,275.884064 256.353027,275.929077 
	C262.173401,275.991394 268.014435,276.184692 273.812469,275.803131 
	C282.918884,275.203827 287.673218,270.906525 289.810425,261.330719 
z"/>
<path fill="#7F370B" opacity="1.000000" stroke="none" 
	d="
M129.865677,278.861084 
	C121.787491,278.106842 119.207413,275.605347 119.137733,268.279297 
	C119.023628,256.281219 119.011406,244.280182 119.142822,232.282440 
	C119.229271,224.390167 123.099930,221.196701 130.969131,222.048706 
	C135.355576,222.523621 138.455643,224.812210 138.538223,229.242767 
	C138.798904,243.228043 138.828522,257.223389 138.596222,271.208984 
	C138.514084,276.152863 135.012711,278.427826 129.865677,278.861084 
M135.965668,257.491028 
	C135.957077,248.837540 136.033737,240.182785 135.904099,231.531113 
	C135.838715,227.166916 133.590988,224.891159 128.980453,224.895462 
	C124.354576,224.899765 122.128250,227.217880 122.094490,231.567703 
	C121.996338,244.214218 122.002037,256.862518 122.102684,269.509033 
	C122.136154,273.714539 124.566116,275.853577 128.768234,275.950806 
	C133.252808,276.054535 135.640640,274.010895 135.894135,269.466522 
	C136.097763,265.816315 135.954773,262.146759 135.965668,257.491028 
z"/>
<path fill="#EC882C" opacity="1.000000" stroke="none" 
	d="
M110.114189,159.247818 
	C110.643608,163.059067 112.267517,166.876999 109.240150,170.540192 
	C108.609734,171.303024 108.966713,173.162201 109.308105,174.394379 
	C110.269264,177.863342 111.459335,181.268890 111.990433,184.917023 
	C110.267105,184.789429 109.112488,184.444229 107.971069,183.654678 
	C106.914589,178.253845 105.844917,173.297363 104.687828,167.935883 
	C98.862999,170.133148 98.236717,174.654266 96.931122,178.926300 
	C96.694725,178.967850 96.215118,178.988266 96.054390,178.708908 
	C95.200401,177.607635 94.507141,176.785736 93.813881,175.963837 
	C94.629944,173.182556 95.446007,170.401260 96.207832,167.325806 
	C97.465881,166.153122 99.694557,165.468155 99.928177,164.361877 
	C100.828629,160.097809 104.572662,160.333664 108.034607,158.963196 
	C109.207664,159.053894 109.660927,159.150848 110.114189,159.247818 
z"/>
<path fill="#EC882C" opacity="1.000000" stroke="none" 
	d="
M131.074020,174.095367 
	C135.426498,170.419235 139.780838,166.745300 144.129288,163.064407 
	C144.722214,162.562515 145.285736,162.025909 146.319351,161.018311 
	C148.627808,158.988480 150.479782,157.445755 152.331772,155.903015 
	C159.340988,158.041977 161.886139,164.201843 164.899933,169.916046 
	C165.652969,171.343811 166.193741,172.883530 166.916595,175.008728 
	C165.968842,176.749863 164.936539,177.854050 163.669830,178.955521 
	C163.435425,178.952805 162.978851,178.839386 162.969788,178.467987 
	C161.399384,173.935944 160.014755,169.697495 158.226730,165.636658 
	C156.459213,161.622391 153.286774,160.369720 150.416138,162.403824 
	C146.939331,164.867432 143.824707,167.875153 140.225723,170.122757 
	C137.436127,171.864853 134.143204,172.800980 131.074020,174.095367 
z"/>
<path fill="#EC882C" opacity="1.000000" stroke="none" 
	d="
M170.134613,185.005463 
	C172.362396,189.934540 175.003937,194.733078 176.619888,199.855194 
	C177.292023,201.985657 175.776550,204.806259 174.745392,207.737457 
	C172.178391,209.136169 170.121872,210.110428 168.092102,210.724915 
	C172.338745,205.590851 172.697540,200.399750 169.918854,194.788376 
	C168.814667,192.558548 167.934036,190.218033 167.099396,187.649963 
	C168.209656,186.583160 169.172134,185.794312 170.134613,185.005463 
z"/>
<path fill="#41280F" opacity="1.000000" stroke="none" 
	d="
M93.991508,211.896744 
	C99.449501,214.206909 104.907501,216.517075 110.694672,218.990723 
	C109.625580,219.653854 107.945091,220.920502 106.875481,220.526947 
	C100.578018,218.209763 94.313362,215.729324 88.294067,212.780457 
	C86.721802,212.010193 86.062141,209.377106 85.295486,207.385406 
	C87.074196,208.115540 88.540779,209.059799 90.007362,210.004059 
	C90.007362,210.004059 90.001602,209.996628 90.149521,210.257416 
	C90.874840,210.659058 91.452232,210.799911 92.029625,210.940765 
	C92.029625,210.940765 92.015236,211.004028 92.197830,211.215363 
	C92.917450,211.583389 93.454483,211.740067 93.991508,211.896744 
z"/>
<path fill="#41280F" opacity="1.000000" stroke="none" 
	d="
M168.065338,211.084702 
	C170.121872,210.110428 172.178391,209.136169 174.560303,208.067276 
	C173.908401,209.709229 173.352615,212.315872 171.879761,213.029373 
	C166.008713,215.873383 159.918137,218.319229 153.749023,220.449646 
	C152.409409,220.912231 150.408829,219.460815 148.957794,218.488083 
	C150.444489,217.766754 151.686050,217.448318 153.314392,217.102539 
	C157.794922,215.392731 161.888687,213.710251 166.293488,212.013931 
	C167.096115,211.685242 167.587723,211.370407 168.060333,211.052002 
	C168.041306,211.048447 168.065338,211.084702 168.065338,211.084702 
z"/>
<path fill="#EC882C" opacity="1.000000" stroke="none" 
	d="
M90.002388,209.612244 
	C88.540779,209.059799 87.074196,208.115540 85.313080,207.011078 
	C84.677086,204.377960 83.527222,201.671494 84.160294,199.480072 
	C85.532333,194.730652 87.816521,190.244720 90.138222,185.435242 
	C91.418694,186.122833 92.288651,187.026215 93.158615,187.929581 
	C91.732033,191.254486 89.574219,194.474731 89.079292,197.932968 
	C88.557777,201.577011 89.624565,205.448364 90.002388,209.612244 
z"/>
<path fill="#292316" opacity="1.000000" stroke="none" 
	d="
M429.980957,315.039246 
	C429.955139,314.369843 430.256897,313.221680 430.642487,313.192810 
	C435.340576,312.840759 437.562866,309.594727 439.752991,305.675293 
	C440.886475,308.786255 441.739410,312.147461 442.568756,315.415710 
	C438.476807,318.944611 434.308838,320.275085 429.980957,315.039246 
z"/>
<path fill="#FACA71" opacity="1.000000" stroke="none" 
	d="
M152.927628,217.129883 
	C151.686050,217.448318 150.444489,217.766754 148.895706,218.169632 
	C146.412704,216.875473 143.598083,215.951797 142.214630,214.008987 
	C140.261887,211.266739 139.367828,207.770584 137.858444,204.019958 
	C137.508774,203.199585 137.267593,203.035843 136.972168,202.951981 
	C136.972168,202.951981 136.974976,203.022217 137.034821,202.654587 
	C137.916382,201.353821 138.738098,200.420685 139.779266,199.827972 
	C143.351593,206.551529 144.723587,214.444580 152.927628,217.129883 
z"/>
<path fill="#65523C" opacity="1.000000" stroke="none" 
	d="
M152.056534,155.730652 
	C150.479782,157.445755 148.627808,158.988480 146.496216,160.708252 
	C146.219284,160.071045 146.048279,159.209854 146.253494,158.450317 
	C147.394669,154.226532 146.432297,152.072998 141.576736,153.364548 
	C141.267242,153.446854 140.785614,152.881958 140.232727,152.346985 
	C142.289780,151.229706 144.452393,150.209991 146.725800,149.610352 
	C147.871323,149.308182 149.217834,149.768021 150.894836,150.323380 
	C151.283722,151.029861 151.251266,151.296280 150.986221,151.462448 
	C150.449722,151.415588 150.145828,151.468964 149.841949,151.522339 
	C149.848633,151.576324 149.855316,151.630310 149.862000,151.684280 
	C150.314636,151.633072 150.767273,151.581863 151.263062,151.879211 
	C151.292709,152.461502 151.279221,152.695267 151.265717,152.929016 
	C151.437576,153.805435 151.609436,154.681854 152.056534,155.730652 
z"/>
<path fill="#E9BA3B" opacity="1.000000" stroke="none" 
	d="
M415.045776,297.198181 
	C414.560699,296.083893 414.075592,294.969635 413.787842,293.530212 
	C417.504700,290.771942 421.024200,288.338837 424.543732,285.905731 
	C425.466278,286.420502 426.388794,286.935242 427.172577,287.996246 
	C423.037811,291.427704 419.041809,294.312958 415.045776,297.198181 
z"/>
<path fill="#292316" opacity="1.000000" stroke="none" 
	d="
M415.058777,297.534241 
	C419.041809,294.312958 423.037811,291.427704 427.324280,288.286621 
	C428.252655,288.332947 428.890625,288.635132 429.804077,288.967651 
	C430.058746,289.402832 430.037903,289.807739 429.632812,290.590515 
	C424.052490,292.875519 419.292023,295.318329 417.064301,300.875916 
	C416.576874,300.598480 416.089478,300.321014 415.306000,299.966919 
	C415.030548,299.216919 415.051147,298.543579 415.058777,297.534241 
z"/>
<path fill="#969492" opacity="1.000000" stroke="none" 
	d="
M170.236053,184.702988 
	C169.172134,185.794312 168.209656,186.583160 166.853180,187.653671 
	C166.459198,187.935333 165.976624,187.835205 165.989655,187.447769 
	C165.303207,184.359634 164.603729,181.658936 163.904251,178.958237 
	C164.936539,177.854050 165.968842,176.749863 167.095032,175.325012 
	C168.238434,178.136398 169.287964,181.268448 170.236053,184.702988 
z"/>
<path fill="#65523C" opacity="1.000000" stroke="none" 
	d="
M123.919556,203.300110 
	C123.756210,197.893433 118.508034,199.582626 115.832039,197.485291 
	C116.742332,197.209122 117.589104,197.108826 118.377075,197.279709 
	C125.250977,198.770355 125.766136,198.430908 126.862999,191.497223 
	C125.658028,190.934601 124.461220,190.375793 123.740692,189.847748 
	C125.729439,189.835434 127.241882,189.792374 128.915970,189.927521 
	C129.077606,190.105759 129.397781,190.465027 129.397781,190.465027 
	C127.613403,194.669724 125.829018,198.874405 123.919556,203.300110 
z"/>
<path fill="#292316" opacity="1.000000" stroke="none" 
	d="
M424.343018,285.616577 
	C421.024200,288.338837 417.504700,290.771942 413.643799,293.255005 
	C413.690826,286.559509 417.154541,284.010406 424.343018,285.616577 
z"/>
<path fill="#969492" opacity="1.000000" stroke="none" 
	d="
M93.441223,187.932037 
	C92.288651,187.026215 91.418694,186.122833 90.242371,185.159424 
	C91.078239,182.227875 92.220474,179.356369 93.588287,176.224335 
	C94.507141,176.785736 95.200401,177.607635 95.930084,179.067444 
	C95.406166,182.427185 94.845833,185.149063 94.285507,187.870926 
	C94.098289,187.892120 93.911064,187.913300 93.441223,187.932037 
z"/>
<path fill="#65523C" opacity="1.000000" stroke="none" 
	d="
M134.465561,198.446136 
	C132.983047,195.739670 131.500534,193.033188 129.707916,190.395874 
	C129.397781,190.465027 129.077606,190.105759 129.002258,189.577759 
	C129.993729,188.290344 131.060516,187.530930 132.275635,187.065277 
	C133.773926,188.280350 135.123886,189.201614 136.531693,190.266678 
	C136.589539,190.410477 136.808868,190.629562 136.449066,190.687042 
	C135.115005,191.028168 134.140778,191.311813 133.140015,191.603180 
	C133.928818,193.912506 134.587250,195.840195 135.050446,197.937195 
	C134.725311,198.219711 134.595428,198.332932 134.465561,198.446136 
z"/>
<path fill="#65523C" opacity="1.000000" stroke="none" 
	d="
M139.559814,199.487549 
	C138.738098,200.420685 137.916382,201.353821 137.069946,202.655579 
	C136.256577,201.711395 135.467896,200.398590 134.572388,198.765961 
	C134.595428,198.332932 134.725311,198.219711 135.398529,198.082764 
	C136.912445,197.993683 137.883026,197.928345 139.141815,197.940674 
	C139.623901,198.063248 139.817780,198.108124 139.962784,198.382996 
	C139.778244,198.897354 139.660202,199.188873 139.559814,199.487549 
z"/>
<path fill="#65523C" opacity="1.000000" stroke="none" 
	d="
M101.948174,142.714783 
	C100.199524,142.891800 98.416924,142.710022 96.342026,142.295135 
	C98.004562,142.160004 99.959389,142.258011 101.948174,142.714783 
z"/>
<path fill="#65523C" opacity="1.000000" stroke="none" 
	d="
M108.898346,146.718369 
	C107.603462,147.388504 106.200676,147.705444 104.285873,147.906174 
	C103.773865,147.789963 103.449455,147.516693 103.449455,147.516693 
	C103.608658,146.906128 103.767860,146.295563 103.929855,145.358551 
	C105.551910,145.476471 107.171181,145.920837 108.898346,146.718369 
z"/>
<path fill="#C1C0BA" opacity="1.000000" stroke="none" 
	d="
M151.218826,151.562683 
	C151.251266,151.296280 151.283722,151.029861 151.219360,150.372711 
	C151.364609,150.917252 151.606689,151.852539 151.557251,152.858429 
	C151.279221,152.695267 151.292709,152.461502 151.236786,151.886536 
	C151.167389,151.545334 151.218826,151.562683 151.218826,151.562683 
z"/>
<path fill="#65523C" opacity="1.000000" stroke="none" 
	d="
M113.421204,150.341370 
	C112.955383,150.296509 112.426773,149.985611 111.917633,149.355881 
	C112.410881,149.383133 112.884651,149.729233 113.421204,150.341370 
z"/>
<path fill="#65523C" opacity="1.000000" stroke="none" 
	d="
M110.952393,147.722382 
	C110.387215,147.919647 109.781593,147.768311 109.055420,147.322723 
	C109.593895,147.143585 110.252922,147.258682 110.952393,147.722382 
z"/>
<path fill="#65523C" opacity="1.000000" stroke="none" 
	d="
M137.056274,203.152451 
	C137.267593,203.035843 137.508774,203.199585 137.767899,203.651825 
	C137.572388,203.738770 137.339157,203.569580 137.056274,203.152451 
z"/>
<path fill="#65523C" opacity="1.000000" stroke="none" 
	d="
M111.986168,148.759827 
	C111.667900,148.901428 111.349976,148.734146 110.981461,148.291321 
	C111.282745,148.160858 111.634621,148.305893 111.986168,148.759827 
z"/>
<path fill="#65523C" opacity="1.000000" stroke="none" 
	d="
M104.017548,144.733383 
	C103.664276,144.897751 103.356995,144.728775 102.991661,144.292114 
	C103.310249,144.149628 103.686897,144.274826 104.017548,144.733383 
z"/>
<path fill="#65523C" opacity="1.000000" stroke="none" 
	d="
M103.025833,143.745331 
	C102.646004,143.908920 102.315430,143.751053 101.957626,143.310760 
	C102.311966,143.160187 102.693527,143.292023 103.025833,143.745331 
z"/>
<path fill="#F7B12F" opacity="1.000000" stroke="none" 
	d="
M136.473846,190.122879 
	C135.123886,189.201614 133.773926,188.280350 132.441437,186.843140 
	C132.737534,185.791611 133.016159,185.255981 133.294785,184.720352 
	C132.539352,184.506958 131.783905,184.293579 131.028473,184.080200 
	C130.778107,180.963028 135.168961,177.971725 131.177673,174.425644 
	C134.143204,172.800980 137.436127,171.864853 140.225723,170.122757 
	C143.824707,167.875153 146.939331,164.867432 150.416138,162.403824 
	C153.286774,160.369720 156.459213,161.622391 158.226730,165.636658 
	C160.014755,169.697495 161.399384,173.935944 162.626083,178.556519 
	C153.685593,182.718582 145.079712,186.420731 136.473846,190.122879 
z"/>
<path fill="#BCBAB6" opacity="1.000000" stroke="none" 
	d="
M94.556381,188.068558 
	C94.845833,185.149063 95.406166,182.427185 96.090805,179.346802 
	C96.215118,178.988266 96.694725,178.967850 97.206520,179.124817 
	C101.131500,180.887543 104.544685,182.493286 107.957870,184.099030 
	C109.112488,184.444229 110.267105,184.789429 111.807266,185.182465 
	C115.160294,186.435120 118.127777,187.639954 121.672798,188.921783 
	C122.588364,189.271515 122.926384,189.544250 123.264404,189.816986 
	C124.461220,190.375793 125.658028,190.934601 126.862999,191.497223 
	C125.766136,198.430908 125.250977,198.770355 118.377075,197.279709 
	C117.589104,197.108826 116.742332,197.209122 115.538559,197.335144 
	C108.378616,194.413147 101.602936,191.339676 94.556381,188.068558 
z"/>
<path fill="#EC882C" opacity="1.000000" stroke="none" 
	d="
M123.740692,189.847748 
	C122.926384,189.544250 122.588364,189.271515 122.057312,188.871490 
	C123.986710,185.902740 126.860077,184.498932 130.696686,184.192108 
	C131.783905,184.293579 132.539352,184.506958 133.294785,184.720352 
	C133.016159,185.255981 132.737534,185.791611 132.293091,186.549362 
	C131.060516,187.530930 129.993729,188.290344 128.840637,189.399536 
	C127.241882,189.792374 125.729439,189.835434 123.740692,189.847748 
z"/>
<path fill="#65523C" opacity="1.000000" stroke="none" 
	d="
M110.360519,159.073807 
	C109.660927,159.150848 109.207664,159.053894 108.409317,158.903503 
	C108.911774,158.866653 109.759315,158.883224 110.360519,159.073807 
z"/>
<path fill="#65523C" opacity="1.000000" stroke="none" 
	d="
M112.186096,159.680450 
	C112.186790,159.390701 112.397308,159.318954 112.607826,159.247208 
	C112.537193,159.464294 112.466560,159.681366 112.186096,159.680450 
z"/>
<path fill="#65523C" opacity="1.000000" stroke="none" 
	d="
M103.925400,147.938339 
	C103.870117,148.284988 103.663292,148.483246 103.456474,148.681519 
	C103.375542,148.420425 103.294609,148.159348 103.331566,147.707474 
	C103.449455,147.516693 103.773865,147.789963 103.925400,147.938339 
z"/>
<path fill="#F1C310" opacity="1.000000" stroke="none" 
	d="
M361.320129,242.316650 
	C362.621979,239.833344 363.744324,237.675690 365.250153,234.780777 
	C361.041290,234.780777 357.733978,234.952896 354.453247,234.731079 
	C351.336060,234.520325 348.169983,233.679352 348.222473,229.717529 
	C348.274292,225.807739 351.223206,224.920486 354.508484,224.902008 
	C360.839020,224.866394 367.171356,224.798386 373.500183,224.906021 
	C379.859955,225.014191 381.369873,227.236664 378.482086,233.058212 
	C374.118713,241.854324 369.310760,250.429840 364.693817,259.100220 
	C363.616364,261.123657 362.547119,263.151489 361.017578,266.039246 
	C366.041779,266.039246 370.274750,265.987671 374.505859,266.055420 
	C377.941772,266.110443 381.079102,266.924255 380.939728,271.218994 
	C380.811188,275.179688 377.798340,275.925354 374.571198,275.949371 
	C367.574249,276.001312 360.576263,276.022522 353.579529,275.960327 
	C346.520172,275.897583 344.895996,273.335358 348.181458,266.862579 
	C352.324829,258.699646 356.805481,250.707916 361.320129,242.316650 
z"/>
<path fill="#F1C310" opacity="1.000000" stroke="none" 
	d="
M415.666443,266.028778 
	C419.693512,266.131531 423.160278,266.704956 422.923065,271.322449 
	C422.704346,275.580322 419.297943,275.950928 415.973969,275.964905 
	C409.148987,275.993652 402.323273,276.026672 395.498840,275.959503 
	C388.614807,275.891724 386.914001,273.428589 390.027130,267.265747 
	C394.750885,257.914459 399.880432,248.768341 404.820709,239.526031 
	C405.505280,238.245377 406.093323,236.913116 407.133759,234.761719 
	C402.999542,234.761719 399.567047,234.957413 396.167877,234.704514 
	C393.018860,234.470245 389.956055,233.408432 390.228058,229.442947 
	C390.495514,225.543671 393.563080,224.898544 396.780243,224.887634 
	C403.105713,224.866165 409.433380,224.787827 415.756348,224.917435 
	C421.964966,225.044647 423.351654,227.318695 420.372223,233.277588 
	C415.984467,242.053177 411.192291,250.626419 406.580566,259.290222 
	C405.512451,261.296844 404.477356,263.321014 403.067596,266.026978 
	C407.662262,266.026978 411.437653,266.026978 415.666443,266.028778 
z"/>
<path fill="#F0C210" opacity="1.000000" stroke="none" 
	d="
M333.857300,270.742584 
	C326.501801,277.652252 312.998077,279.163361 305.432526,273.374847 
	C302.532043,271.155640 299.575073,267.136719 299.290771,263.717773 
	C298.383698,252.810577 298.601227,241.799759 298.630127,230.829620 
	C298.642456,226.144547 301.708527,224.671036 306.049988,224.875946 
	C310.519012,225.086914 312.150116,227.542480 312.140045,231.692383 
	C312.120667,239.685287 312.133636,247.678864 312.224915,255.671097 
	C312.249451,257.820557 311.977112,260.337769 312.971436,262.016632 
	C314.132812,263.977600 316.512177,266.390808 318.399841,266.422577 
	C320.342865,266.455261 323.484039,264.205048 324.050293,262.333374 
	C325.124115,258.783875 324.857239,254.793396 324.923218,250.982208 
	C325.035583,244.489685 324.987122,237.994125 324.982300,231.499878 
	C324.979156,227.265900 326.906342,224.937622 331.294128,224.922836 
	C335.521759,224.908600 337.292328,227.238037 337.289001,231.212021 
	C337.280487,241.356552 337.472595,251.510086 337.074432,261.639984 
	C336.957672,264.611420 335.132111,267.515686 333.857300,270.742584 
z"/>
<path fill="#EC882C" opacity="1.000000" stroke="none" 
	d="
M93.807175,211.684738 
	C93.454483,211.740067 92.917450,211.583389 92.217720,211.189575 
	C92.577629,211.125870 93.100235,211.299301 93.807175,211.684738 
z"/>
<path fill="#EC882C" opacity="1.000000" stroke="none" 
	d="
M91.837372,210.717331 
	C91.452232,210.799911 90.874840,210.659058 90.144760,210.256195 
	C90.543083,210.160767 91.094101,210.327332 91.837372,210.717331 
z"/>
<path fill="#EE7122" opacity="1.000000" stroke="none" 
	d="
M90.257385,275.476318 
	C82.910202,276.235901 80.916435,274.585022 80.891891,267.951233 
	C80.848160,256.128479 80.840317,244.305191 80.898117,232.482513 
	C80.927444,226.484329 82.355255,225.028122 88.208344,224.959457 
	C94.535072,224.885239 100.864235,224.900436 107.190887,224.984695 
	C110.516823,225.028976 113.149025,226.109756 113.112946,230.122574 
	C113.077026,234.117569 110.514854,235.140549 107.126579,235.146393 
	C103.962761,235.151855 100.795311,235.227036 97.636200,235.101593 
	C95.067680,234.999634 94.213379,236.057922 94.071663,238.610443 
	C93.614990,246.836227 93.516151,246.826279 101.871437,246.834900 
	C103.202568,246.836273 104.858322,246.412537 105.793945,247.038010 
	C107.495117,248.175308 109.895325,249.946594 109.903549,251.464676 
	C109.911789,252.985764 107.610237,255.249985 105.856384,255.866455 
	C103.625610,256.650574 100.914062,256.278931 98.434006,256.089142 
	C95.215775,255.842865 93.843178,256.988403 94.080185,260.322845 
	C94.292122,263.304626 94.546631,266.401825 93.964310,269.282745 
	C93.529396,271.434387 91.791473,273.322632 90.257385,275.476318 
z"/>
<path fill="#ED7021" opacity="1.000000" stroke="none" 
	d="
M168.873108,275.975769 
	C163.060059,275.975128 157.726929,276.019714 152.394913,275.962860 
	C145.122681,275.885284 143.636642,273.661102 146.957184,267.066223 
	C151.225311,258.589294 155.878448,250.306732 160.323853,241.918243 
	C161.375946,239.932968 162.261093,237.859192 163.710831,234.795197 
	C159.606918,234.795197 156.485672,235.030594 153.416763,234.730576 
	C150.194733,234.415588 146.766724,233.638474 147.098541,229.281158 
	C147.407303,225.226547 150.693451,224.980164 153.783142,224.947037 
	C159.948257,224.880936 166.115540,224.860336 172.280136,224.947632 
	C178.290070,225.032730 179.876648,227.584671 177.113586,233.362976 
	C174.314545,239.216461 171.034637,244.839676 167.976456,250.569672 
	C165.403366,255.390762 162.846222,260.220367 159.760498,266.027710 
	C164.237946,266.027710 167.953430,266.037842 171.668839,266.024902 
	C175.486252,266.011627 179.780762,266.101196 179.692261,271.157410 
	C179.610794,275.810730 175.526703,276.039856 171.853287,275.977112 
	C171.020279,275.962891 170.186798,275.975525 168.873108,275.975769 
z"/>
<path fill="#ED7021" opacity="1.000000" stroke="none" 
	d="
M209.172684,266.033936 
	C211.294388,266.031403 212.958130,266.017639 214.621628,266.031677 
	C218.110733,266.061127 221.767776,266.312897 221.867355,270.882446 
	C221.966782,275.445801 218.425964,275.961853 214.865341,275.969055 
	C208.044495,275.982849 201.223022,276.028015 194.402893,275.956329 
	C187.720657,275.886078 186.046555,273.254089 189.096054,267.072815 
	C192.257324,260.665039 195.827225,254.459045 199.208435,248.159454 
	C201.395569,244.084595 203.564743,240.000122 206.302628,234.869217 
	C203.463684,234.869217 201.418411,234.954041 199.383392,234.845963 
	C197.239594,234.732117 194.852142,234.950607 193.042526,234.062927 
	C191.414169,233.264175 189.200043,230.918335 189.445023,229.695953 
	C189.796310,227.943192 192.075317,225.368301 193.656952,225.275024 
	C201.445847,224.815689 209.280823,224.903946 217.089722,225.133179 
	C220.179565,225.223877 221.624115,227.398544 220.335312,230.378296 
	C218.427292,234.789719 216.283661,239.107758 214.065323,243.374573 
	C210.256882,250.699799 206.313293,257.954773 202.001678,266.035339 
	C204.851913,266.035339 206.783249,266.035339 209.172684,266.033936 
z"/>
<path fill="#E9BA3B" opacity="1.000000" stroke="none" 
	d="
M417.287170,301.007416 
	C419.292023,295.318329 424.052490,292.875519 429.613373,290.894043 
	C430.187256,291.804871 430.396301,292.790070 429.960754,293.933777 
	C426.037842,296.637329 422.759491,299.182404 419.481171,301.727509 
	C418.824127,301.531311 418.167084,301.335114 417.287170,301.007416 
z"/>
<path fill="#292316" opacity="1.000000" stroke="none" 
	d="
M419.938599,301.798706 
	C422.759491,299.182404 426.037842,296.637329 429.667847,294.106201 
	C429.699066,299.885559 426.556671,302.416138 419.938599,301.798706 
z"/>
<path fill="#F2C410" opacity="1.000000" stroke="none" 
	d="
M289.771301,261.731506 
	C287.673218,270.906525 282.918884,275.203827 273.812469,275.803131 
	C268.014435,276.184692 262.173401,275.991394 256.353027,275.929077 
	C252.144073,275.884064 249.913300,273.716522 249.926132,269.395691 
	C249.963654,256.753632 249.969711,244.111481 250.014343,231.469482 
	C250.030396,226.919434 252.456131,224.836594 256.914124,224.873276 
	C261.904022,224.914337 266.899689,224.774841 271.882996,224.967941 
	C278.084045,225.208237 284.952057,225.266434 287.491302,232.265488 
	C290.063263,239.354828 287.155487,245.249847 280.095673,249.494507 
	C287.038147,250.976028 289.910767,255.040344 289.771301,261.731506 
M271.567688,266.606110 
	C276.016510,264.959839 277.873688,261.762695 276.654816,257.202332 
	C275.509186,252.915955 270.514404,251.361984 263.390503,252.814667 
	C263.390503,257.485352 263.390503,262.171021 263.390503,266.847137 
	C266.131958,266.847137 268.444397,266.847137 271.567688,266.606110 
M262.967957,238.563080 
	C262.967957,240.670532 262.967957,242.777985 262.967957,245.953018 
	C266.848755,244.996033 270.236694,244.890289 272.644104,243.300079 
	C274.148346,242.306458 275.110931,237.339966 274.713684,237.125488 
	C271.860321,235.585175 268.636200,234.596588 265.424683,233.981934 
	C264.859863,233.873825 263.801758,236.343201 262.967957,238.563080 
z"/>
<path fill="#EE7122" opacity="1.000000" stroke="none" 
	d="
M135.965637,257.988403 
	C135.954773,262.146759 136.097763,265.816315 135.894135,269.466522 
	C135.640640,274.010895 133.252808,276.054535 128.768234,275.950806 
	C124.566116,275.853577 122.136154,273.714539 122.102684,269.509033 
	C122.002037,256.862518 121.996338,244.214218 122.094490,231.567703 
	C122.128250,227.217880 124.354576,224.899765 128.980453,224.895462 
	C133.590988,224.891159 135.838715,227.166916 135.904099,231.531113 
	C136.033737,240.182785 135.957077,248.837540 135.965637,257.988403 
z"/>
<path fill="#F7B12F" opacity="1.000000" stroke="none" 
	d="
M107.971069,183.654663 
	C104.544685,182.493286 101.131500,180.887543 97.442917,179.083267 
	C98.236717,174.654266 98.862999,170.133148 104.687828,167.935883 
	C105.844917,173.297363 106.914589,178.253845 107.971069,183.654663 
z"/>
<path fill="#C1C0BA" opacity="1.000000" stroke="none" 
	d="
M136.531693,190.266678 
	C145.079712,186.420731 153.685593,182.718582 162.635162,178.927917 
	C162.978851,178.839386 163.435425,178.952805 163.669830,178.955521 
	C164.603729,181.658936 165.303207,184.359634 165.678864,187.618744 
	C157.300446,192.501358 149.433716,197.302841 140.011642,198.152985 
	C139.817780,198.108124 139.623901,198.063248 139.113724,197.577484 
	C138.134567,194.967590 137.471710,192.798584 136.808868,190.629562 
	C136.808868,190.629562 136.589539,190.410477 136.531693,190.266678 
z"/>
<path fill="#F7B12F" opacity="1.000000" stroke="none" 
	d="
M139.962784,198.382996 
	C149.433716,197.302841 157.300446,192.501358 165.665833,188.006180 
	C165.976624,187.835205 166.459198,187.935333 166.705414,187.931610 
	C167.934036,190.218033 168.814667,192.558548 169.918854,194.788376 
	C172.697540,200.399750 172.338745,205.590851 168.092102,210.724915 
	C168.065338,211.084702 168.041306,211.048447 167.754883,211.059296 
	C166.973129,211.389343 166.477783,211.708542 165.982452,212.027771 
	C161.888687,213.710251 157.794922,215.392731 153.314392,217.102539 
	C144.723587,214.444580 143.351593,206.551529 139.779266,199.827972 
	C139.660202,199.188873 139.778244,198.897354 139.962784,198.382996 
z"/>
<path fill="#EC882C" opacity="1.000000" stroke="none" 
	d="
M166.293488,212.013916 
	C166.477783,211.708542 166.973129,211.389343 167.773895,211.062851 
	C167.587723,211.370407 167.096115,211.685242 166.293488,212.013916 
z"/>
<path fill="#969492" opacity="1.000000" stroke="none" 
	d="
M150.986221,151.462448 
	C151.218826,151.562683 151.167389,151.545334 151.193649,151.537994 
	C150.767273,151.581863 150.314636,151.633072 149.862000,151.684280 
	C149.855316,151.630310 149.848633,151.576324 149.841949,151.522339 
	C150.145828,151.468964 150.449722,151.415588 150.986221,151.462448 
z"/>
<path fill="#EFDDB3" opacity="1.000000" stroke="none" 
	d="
M136.449051,190.687042 
	C137.471710,192.798584 138.134567,194.967590 138.825516,197.499802 
	C137.883026,197.928345 136.912445,197.993683 135.593781,197.913452 
	C134.587250,195.840195 133.928818,193.912506 133.140015,191.603180 
	C134.140778,191.311813 135.115005,191.028168 136.449051,190.687042 
z"/>
<path fill="#7F3907" opacity="1.000000" stroke="none" 
	d="
M271.162262,266.726624 
	C268.444397,266.847137 266.131958,266.847137 263.390503,266.847137 
	C263.390503,262.171021 263.390503,257.485352 263.390503,252.814667 
	C270.514404,251.361984 275.509186,252.915955 276.654816,257.202332 
	C277.873688,261.762695 276.016510,264.959839 271.162262,266.726624 
M265.897644,261.360931 
	C265.807373,265.468109 269.019745,264.600006 270.602814,263.665955 
	C272.180695,262.734985 274.016357,260.077850 273.726227,258.563049 
	C272.957611,254.550400 269.462341,255.039047 265.889740,255.267624 
	C265.889740,257.224365 265.889740,258.838684 265.897644,261.360931 
z"/>
<path fill="#7E3A0B" opacity="1.000000" stroke="none" 
	d="
M262.969727,238.092667 
	C263.801758,236.343201 264.859863,233.873825 265.424683,233.981934 
	C268.636200,234.596588 271.860321,235.585175 274.713684,237.125488 
	C275.110931,237.339966 274.148346,242.306458 272.644104,243.300079 
	C270.236694,244.890289 266.848755,244.996033 262.967957,245.953018 
	C262.967957,242.777985 262.967957,240.670532 262.969727,238.092667 
M269.097351,241.999756 
	C270.059357,240.715347 271.021362,239.430939 271.983368,238.146545 
	C270.184265,237.585220 268.385193,237.023911 266.586090,236.462585 
	C266.161987,237.013275 265.737915,237.563980 265.313812,238.114670 
	C266.292480,239.455887 267.271149,240.797089 269.097351,241.999756 
z"/>
<path fill="#A6A6A6" opacity="1.000000" stroke="none" 
	d="
M265.893677,260.906982 
	C265.889740,258.838684 265.889740,257.224365 265.889740,255.267624 
	C269.462341,255.039047 272.957611,254.550400 273.726227,258.563049 
	C274.016357,260.077850 272.180695,262.734985 270.602814,263.665955 
	C269.019745,264.600006 265.807373,265.468109 265.893677,260.906982 
z"/>
<path fill="#A6A6A6" opacity="1.000000" stroke="none" 
	d="
M268.673584,242.069031 
	C267.271149,240.797089 266.292480,239.455887 265.313812,238.114670 
	C265.737915,237.563980 266.161987,237.013275 266.586090,236.462585 
	C268.385193,237.023911 270.184265,237.585220 271.983337,238.146545 
	C271.021362,239.430939 270.059357,240.715347 268.673584,242.069031 
z"/>
</svg>