<svg version="1.1" id="Layer_1" xmlns="http://www.w3.org/2000/svg" xmlns:xlink="http://www.w3.org/1999/xlink" x="0px" y="0px"
	 width="100%" viewBox="0 0 500 500" enable-background="new 0 0 500 500" xml:space="preserve">
<path fill="#A6A6A6" opacity="1.000000" stroke="none" 
	d="
M314.000000,501.000000 
	C209.333359,501.000000 105.166718,501.000000 1.000056,501.000000 
	C1.000037,334.333405 1.000037,167.666794 1.000019,1.000145 
	C167.666565,1.000097 334.333130,1.000097 500.999756,1.000048 
	C500.999847,167.666519 500.999847,334.333038 500.999939,500.999786 
	C438.833344,501.000000 376.666656,501.000000 314.000000,501.000000 
M133.127518,139.357010 
	C132.746872,139.219589 132.366241,139.082153 131.988464,139.012497 
	C131.988464,139.012497 132.056274,139.010849 132.042984,138.241302 
	C130.699829,136.127533 129.356689,134.013748 128.027191,131.162506 
	C128.230621,129.078491 129.771591,126.240608 125.902290,126.111328 
	C123.095810,126.017548 119.251640,124.663406 118.209541,130.028854 
	C112.987442,131.123566 107.765343,132.218262 101.923386,132.754913 
	C95.948967,132.875839 89.974541,132.996750 83.482735,132.865112 
	C82.981827,132.589279 82.480927,132.313446 81.772552,131.594116 
	C81.591995,131.305313 81.340912,131.104797 80.840233,130.602539 
	C80.679619,130.345505 80.451508,130.183533 79.830040,129.486938 
	C76.170860,124.364189 70.181107,123.350006 64.995178,121.007950 
	C64.995178,121.007950 64.957367,121.067955 65.210579,120.360657 
	C61.005119,116.789375 56.589542,116.575500 52.823727,119.961586 
	C50.803268,121.778320 49.022778,123.861923 47.054348,126.191597 
	C47.054348,126.191597 46.853924,126.508606 46.617188,126.456245 
	C46.617188,126.456245 46.500896,126.859848 46.268532,127.480553 
	C46.166302,127.676399 46.064075,127.872246 45.517048,127.900375 
	C44.659042,130.572083 43.801041,133.243790 42.428055,136.545197 
	C42.292164,138.692978 42.156277,140.840759 42.141716,143.547821 
	C42.454773,143.986221 42.767826,144.424606 43.547939,145.276962 
	C43.826221,145.586136 44.104500,145.895294 44.350834,146.608353 
	C44.565277,146.932999 44.779720,147.257660 45.968307,147.992416 
	C46.285683,148.145386 46.603058,148.298355 46.744267,148.641693 
	C47.045246,148.706238 47.346226,148.770767 48.324734,148.880005 
	C48.550632,148.865921 48.776531,148.851822 49.668869,148.893219 
	C50.114059,148.874863 50.559250,148.856506 51.798653,148.880051 
	C52.308876,148.748932 52.819103,148.617813 53.588184,148.965729 
	C54.278702,149.369858 54.969219,149.773972 56.101658,150.761200 
	C55.085438,154.163071 54.069214,157.564926 52.465233,161.075974 
	C51.600788,163.834229 50.736343,166.592499 49.232510,169.420670 
	C46.190884,176.743851 43.130966,184.059647 40.161377,191.411926 
	C40.012280,191.781082 40.644993,192.466019 40.969509,193.685028 
	C41.638336,196.017044 42.307167,198.349075 42.414944,201.073502 
	C44.025166,203.393311 45.129906,206.616043 47.344685,207.855957 
	C52.965397,211.002563 59.027996,213.397461 65.020668,215.829712 
	C69.554520,217.669876 74.041016,217.503464 78.592491,213.847794 
	C80.404884,212.408401 82.217285,210.969009 84.657921,209.127655 
	C89.257866,198.842117 93.857803,188.556580 98.753532,177.609665 
	C99.640808,179.522446 100.349251,180.957916 100.980766,182.426453 
	C104.324463,190.201981 107.500122,198.054840 111.062126,205.728592 
	C112.276741,208.345276 114.445747,210.518921 116.117554,212.987793 
	C116.117554,212.987793 116.008217,212.969727 116.209045,212.946365 
	C116.209045,212.946365 116.458229,213.027420 116.458229,213.027420 
	C116.458229,213.027420 116.723488,212.928589 117.265038,213.071472 
	C117.711411,213.401779 118.157784,213.732101 119.076973,214.684647 
	C122.722160,215.284851 126.689995,217.097626 129.945023,216.231537 
	C136.615646,214.456635 143.066650,211.568924 149.266113,208.457916 
	C151.609589,207.281937 153.008408,204.223495 155.130173,201.369598 
	C155.104111,200.918381 155.078033,200.467148 155.001663,199.997833 
	C155.001663,199.997833 155.023071,200.046814 155.773682,200.082901 
	C159.760468,194.090805 156.884247,188.784851 153.901520,182.716629 
	C152.238708,179.162094 150.575897,175.607559 149.397919,171.612686 
	C147.931244,168.053741 146.464569,164.494812 144.950150,160.204575 
	C142.302277,154.935669 139.654388,149.666763 137.045364,143.675690 
	C136.693604,143.431610 136.341843,143.187515 135.987747,143.011017 
	C135.987747,143.011017 136.055298,143.014221 136.082611,142.359390 
	C135.718628,142.219910 135.354645,142.080429 134.990646,142.009277 
	C134.990646,142.009277 135.058990,142.009872 135.136581,141.340240 
	C134.754395,141.207169 134.372208,141.074097 133.990509,141.009506 
	C133.990509,141.009506 134.058990,141.009872 134.136566,140.340240 
	C133.754379,140.207169 133.372192,140.074097 132.990753,140.009354 
	C132.990753,140.009354 133.059082,140.009216 133.127518,139.357010 
M455.134216,305.913605 
	C455.333130,307.213776 455.532074,308.513977 455.834595,310.597015 
	C456.274445,311.801636 456.714325,313.006287 457.234497,314.838501 
	C457.842896,315.650177 458.451263,316.461884 459.017639,317.761932 
	C459.017639,317.761932 458.902954,318.238525 458.314758,318.311829 
	C456.216187,318.540161 454.047363,318.515167 452.039764,319.071655 
	C450.216217,319.577118 447.026794,320.942780 447.114136,321.534271 
	C447.459198,323.870911 448.240723,327.074921 449.968994,328.114990 
	C457.654266,332.739990 465.625244,337.048706 475.826508,335.601685 
	C479.302795,338.513153 482.779053,341.424591 485.495148,343.699371 
	C486.202179,342.711487 487.359619,340.515869 489.048340,338.863068 
	C491.963043,336.010437 491.505066,333.003479 490.103180,329.819580 
	C489.528961,328.515442 488.703827,327.321838 488.179871,325.284790 
	C488.416412,323.977722 488.652954,322.670624 489.150940,320.964478 
	C489.626923,320.312897 490.102905,319.661285 490.842560,318.308990 
	C490.785187,313.871338 490.727814,309.433655 490.545593,304.423950 
	C490.012177,303.942444 489.478790,303.460907 489.119568,302.319489 
	C488.791962,301.334290 488.464355,300.349121 488.479126,299.046356 
	C488.317200,298.704193 488.155243,298.362030 487.643158,297.386597 
	C487.161041,296.850861 486.678925,296.315094 486.099335,295.653290 
	C486.099335,295.653290 486.318878,295.606323 486.318878,295.606323 
	C486.318878,295.606323 486.176910,295.780334 485.548126,295.304138 
	C483.318024,292.743195 481.490875,294.393738 480.503906,296.280609 
	C479.322083,298.540009 478.892151,301.192688 477.799530,303.734802 
	C477.405548,303.875885 477.146790,303.774994 476.369781,303.954407 
	C475.386322,303.494446 474.402832,303.034485 473.071289,302.062500 
	C471.863434,301.299591 470.655548,300.536713 468.995941,299.249268 
	C467.702972,298.839478 466.410004,298.429688 464.519928,297.560883 
	C458.321838,296.742981 456.005676,298.652435 455.134216,305.913605 
M407.773621,290.433105 
	C413.485077,290.275848 416.981720,286.898499 419.433411,281.671875 
	C420.668701,288.444458 425.088531,290.393188 430.512482,290.460083 
	C440.788788,290.586853 451.091125,290.778381 461.340210,290.196106 
	C468.527222,289.787781 471.432190,285.949890 471.018524,279.510315 
	C470.659668,273.924561 467.149414,271.108337 460.257263,270.982819 
	C456.530792,270.914917 452.802124,270.970734 448.342499,270.970734 
	C449.516022,268.582001 450.203522,267.113037 450.949738,265.674561 
	C456.693909,254.601776 462.886139,243.734085 468.055664,232.399689 
	C471.812927,224.161774 468.484985,219.451889 459.497528,219.144501 
	C450.512421,218.837189 441.509186,219.013657 432.514618,219.075485 
	C431.049347,219.085541 429.532227,219.437012 428.134521,219.911697 
	C423.874146,221.358566 422.213867,224.806183 422.435028,228.898987 
	C422.651642,232.907928 423.540863,236.952103 428.690369,237.653320 
	C432.709869,238.200699 436.735016,238.706818 441.215332,239.290939 
	C433.799438,253.302872 426.600922,266.904144 418.819122,281.607391 
	C415.704437,266.302429 404.045929,272.806122 395.683197,270.368744 
	C396.529358,268.617218 397.254883,267.014191 398.064850,265.454987 
	C403.738739,254.532364 409.809296,243.795105 414.991577,232.644684 
	C418.889587,224.257492 415.550507,219.423538 406.273987,219.131393 
	C397.215149,218.846085 388.134857,218.874649 379.074463,219.132812 
	C372.883698,219.309219 369.548187,222.780716 369.343689,228.347092 
	C369.154053,233.509369 372.214417,237.151489 378.009064,238.167526 
	C381.199799,238.727005 384.480255,238.774521 388.191650,239.093338 
	C387.527588,240.576309 387.131592,241.628220 386.605164,242.610229 
	C381.572754,251.997940 376.409210,261.317627 371.530518,270.784271 
	C369.875031,273.996613 368.672302,277.502441 367.710999,280.997467 
	C366.458740,285.550354 368.800812,288.418488 373.026123,289.675018 
	C375.229004,290.330139 377.614380,290.614960 379.921021,290.634674 
	C388.915588,290.711578 397.911591,290.615662 407.773621,290.433105 
M344.698517,220.995895 
	C340.693726,223.865265 340.096832,228.100876 340.121857,232.551926 
	C340.148102,237.214310 340.329590,241.876831 340.298615,246.538330 
	C340.252197,253.531540 340.300873,260.540436 339.780762,267.503204 
	C339.672119,268.957520 337.349823,271.180511 335.891846,271.311218 
	C334.675079,271.420258 332.632446,269.207947 332.040039,267.619293 
	C331.323883,265.698822 331.713623,263.352692 331.688446,261.190033 
	C331.564423,250.535858 331.799957,239.863419 331.234528,229.233307 
	C330.845062,221.912262 326.406464,218.760284 318.624542,218.980347 
	C311.425323,219.183960 307.248901,222.853012 307.119995,230.020523 
	C306.889465,242.841492 306.770020,255.681137 307.205078,268.492554 
	C307.610901,280.443787 314.282867,287.901306 325.976135,290.450836 
	C329.047852,291.120605 332.240540,291.527649 335.380432,291.544495 
	C352.932831,291.638824 362.184174,283.341675 363.066620,265.885406 
	C363.628937,254.762497 363.064209,243.583527 363.035614,232.429596 
	C363.005890,220.842224 356.249054,216.298065 344.698517,220.995895 
M187.585403,239.144943 
	C185.195831,244.178055 182.897156,249.256836 180.395676,254.233719 
	C176.511963,261.960693 172.044525,269.427826 168.653946,277.359619 
	C165.352646,285.082642 168.080444,289.791046 176.164001,290.185913 
	C187.115067,290.720795 198.134247,290.612305 209.087860,290.059357 
	C215.544373,289.733459 218.317062,285.821564 218.021545,279.742401 
	C217.752274,274.202820 214.402908,271.213745 207.979309,271.002991 
	C204.052917,270.874146 200.118851,270.979218 195.135223,270.979218 
	C200.051270,261.789185 204.549423,253.521362 208.906235,245.179749 
	C211.291580,240.612747 213.905228,236.083023 215.581894,231.247299 
	C218.034653,224.173248 215.314484,219.662109 208.197983,219.314682 
	C198.226135,218.827835 188.206924,218.909119 178.223190,219.226334 
	C172.668732,219.402802 169.617966,222.980270 169.355011,228.212082 
	C169.114746,232.992111 171.889175,236.889191 176.906723,237.949860 
	C180.129593,238.631149 183.514938,238.543915 187.585403,239.144943 
M163.300537,227.367569 
	C163.701736,221.946594 160.237976,219.557236 155.743973,219.379654 
	C145.449966,218.972855 135.125900,219.005051 124.824455,219.267395 
	C120.710327,219.372162 117.694443,221.749512 116.719467,226.131042 
	C115.850212,230.037460 116.380119,233.836517 119.819778,235.897583 
	C122.524025,237.517975 126.001266,237.936584 129.192535,238.621704 
	C131.008545,239.011551 132.939804,238.864655 135.537262,238.995682 
	C131.275787,246.959854 127.405823,254.079346 123.645943,261.256531 
	C120.873360,266.549072 117.841629,271.757080 115.647400,277.289154 
	C112.470917,285.297699 115.092674,289.820831 123.569824,290.245361 
	C134.174210,290.776428 144.848175,290.719574 155.452728,290.164337 
	C162.573914,289.791504 165.473160,285.868011 165.012299,279.413086 
	C164.617081,273.877625 161.088608,271.101349 154.175995,270.984467 
	C150.464432,270.921661 146.750961,270.973267 142.112671,270.973267 
	C147.131668,261.610443 151.769501,253.387360 155.979736,244.950912 
	C158.699005,239.502075 160.791885,233.740646 163.300537,227.367569 
M74.302422,239.077682 
	C80.164658,236.692215 82.265785,233.268875 81.334679,227.620132 
	C80.460709,222.318008 77.362000,219.368973 71.250740,219.172180 
	C61.944969,218.872543 52.616814,218.853027 43.310497,219.129532 
	C36.983147,219.317520 33.173344,223.290039 33.100704,229.750992 
	C32.913727,246.382843 32.895729,263.019470 33.078560,279.651245 
	C33.156792,286.767944 37.726379,290.640106 45.148430,290.670624 
	C52.836887,290.702240 57.119850,286.763000 57.327023,279.297729 
	C57.445404,275.031921 57.348454,270.760162 57.348454,265.865295 
	C61.638599,265.865295 65.274933,266.107574 68.866562,265.810120 
	C74.662613,265.330170 77.779083,261.952179 77.940491,256.509064 
	C78.111153,250.754349 75.124329,247.254944 69.081871,246.514114 
	C66.455872,246.192139 63.767929,246.301880 61.109772,246.337769 
	C58.788506,246.369095 57.333416,245.828156 57.330914,243.031509 
	C57.328453,240.281525 58.684464,239.683594 61.051846,239.659668 
	C65.198891,239.617798 69.344032,239.387466 74.302422,239.077682 
M296.185547,252.481766 
	C307.696838,235.697403 301.379730,221.405716 281.129761,219.378464 
	C272.717651,218.536301 264.153320,218.918457 255.671371,219.176437 
	C250.173218,219.343658 246.380417,222.854599 246.278763,228.350311 
	C245.955322,245.834518 245.930496,263.328705 246.126846,280.815247 
	C246.182999,285.814453 249.359985,289.915588 254.366699,290.002838 
	C265.284180,290.193054 276.581818,290.992523 287.064087,288.623077 
	C304.005341,284.793579 308.698151,264.931183 296.185547,252.481766 
M109.902649,255.500000 
	C109.899323,247.352005 110.048767,239.200272 109.849953,231.057037 
	C109.648987,222.825790 105.395073,218.903107 97.264412,218.970703 
	C89.278542,219.037094 85.151665,223.186432 85.116814,231.465973 
	C85.051720,246.930298 85.060265,262.395203 85.112587,277.859619 
	C85.141281,286.340729 89.358047,290.611969 97.557068,290.689117 
	C105.863716,290.767303 109.749603,286.826782 109.879303,277.950562 
	C109.983765,270.801788 109.901787,263.650299 109.902649,255.500000 
z"/>
<path fill="#7E3908" opacity="1.000000" stroke="none" 
	d="
M407.340332,290.508545 
	C397.911591,290.615662 388.915588,290.711578 379.921021,290.634674 
	C377.614380,290.614960 375.229004,290.330139 373.026123,289.675018 
	C368.800812,288.418488 366.458740,285.550354 367.710999,280.997467 
	C368.672302,277.502441 369.875031,273.996613 371.530518,270.784271 
	C376.409210,261.317627 381.572754,251.997940 386.605164,242.610229 
	C387.131592,241.628220 387.527588,240.576309 388.191650,239.093338 
	C384.480255,238.774521 381.199799,238.727005 378.009064,238.167526 
	C372.214417,237.151489 369.154053,233.509369 369.343689,228.347092 
	C369.548187,222.780716 372.883698,219.309219 379.074463,219.132812 
	C388.134857,218.874649 397.215149,218.846085 406.273987,219.131393 
	C415.550507,219.423538 418.889587,224.257492 414.991577,232.644684 
	C409.809296,243.795105 403.738739,254.532364 398.064850,265.454987 
	C397.254883,267.014191 396.529358,268.617218 395.683197,270.368744 
	C404.045929,272.806122 415.704437,266.302429 418.819122,281.607391 
	C426.600922,266.904144 433.799438,253.302872 441.215332,239.290939 
	C436.735016,238.706818 432.709869,238.200699 428.690369,237.653320 
	C423.540863,236.952103 422.651642,232.907928 422.435028,228.898987 
	C422.213867,224.806183 423.874146,221.358566 428.134521,219.911697 
	C429.532227,219.437012 431.049347,219.085541 432.514618,219.075485 
	C441.509186,219.013657 450.512421,218.837189 459.497528,219.144501 
	C468.484985,219.451889 471.812927,224.161774 468.055664,232.399689 
	C462.886139,243.734085 456.693909,254.601776 450.949738,265.674561 
	C450.203522,267.113037 449.516022,268.582001 448.342499,270.970734 
	C452.802124,270.970734 456.530792,270.914917 460.257263,270.982819 
	C467.149414,271.108337 470.659668,273.924561 471.018524,279.510315 
	C471.432190,285.949890 468.527222,289.787781 461.340210,290.196106 
	C451.091125,290.778381 440.788788,290.586853 430.512482,290.460083 
	C425.088531,290.393188 420.668701,288.444458 419.433411,281.671875 
	C416.981720,286.898499 413.485077,290.275848 407.340332,290.508545 
M463.126556,275.044556 
	C456.437012,275.044556 449.747467,275.044556 441.871216,275.044556 
	C449.399139,260.996613 456.101685,248.557922 462.719513,236.074341 
	C463.881653,233.882141 464.909058,231.566727 465.608704,229.193253 
	C466.671478,225.587921 465.203979,223.069473 461.365601,223.000809 
	C451.377228,222.822128 441.367981,222.662704 431.405487,223.203705 
	C429.525574,223.305786 426.474457,226.633484 426.411041,228.553635 
	C426.345062,230.550262 428.893219,233.196609 430.962860,234.517670 
	C432.546967,235.528793 435.164520,234.979294 437.324280,235.016357 
	C440.517456,235.071152 443.712250,235.030518 447.762604,235.030518 
	C444.448486,241.214966 441.690491,246.316742 438.974182,251.440598 
	C434.295807,260.265533 429.402283,268.987976 425.068237,277.979584 
	C422.361023,283.596069 424.132324,286.658508 429.979889,286.822449 
	C440.302063,287.111786 450.650879,287.165222 460.958679,286.681274 
	C463.161652,286.577820 466.442291,284.102722 467.015167,282.090668 
	C467.534943,280.265045 465.042084,277.581665 463.126556,275.044556 
M371.472290,279.272949 
	C370.630554,285.238525 371.760590,286.781952 377.906769,286.904114 
	C387.067963,287.086304 396.235260,287.006805 405.399628,286.963531 
	C411.382446,286.935242 414.570770,284.733734 414.607178,280.792358 
	C414.643921,276.816803 411.423309,274.509918 405.543457,274.366913 
	C404.382843,274.338684 403.217896,274.565735 402.054199,274.574097 
	C398.124054,274.602173 394.193573,274.584778 389.297607,274.584778 
	C391.318329,270.645447 392.838654,267.584015 394.444733,264.568268 
	C400.080109,253.986923 405.961243,243.529495 411.322723,232.811737 
	C414.902771,225.655121 413.071533,222.888199 405.236328,222.748810 
	C397.074341,222.603592 388.906982,222.670074 380.743134,222.755875 
	C376.783691,222.797455 373.291626,223.806335 373.068451,228.680252 
	C372.887299,232.635910 375.663147,234.846024 380.962677,234.986008 
	C385.220459,235.098465 389.483612,235.008789 394.570557,235.008789 
	C386.688721,250.056412 379.229889,264.296448 371.472290,279.272949 
z"/>
<path fill="#EFDDB3" opacity="1.000000" stroke="none" 
	d="
M84.000122,133.117676 
	C89.974541,132.996750 95.948967,132.875839 102.488358,133.223511 
	C103.748581,134.130753 104.972015,135.041885 105.063057,134.940109 
	C108.968155,130.574295 114.537971,133.858459 119.001129,132.169189 
	C119.702637,133.540451 120.317146,134.608765 120.629868,135.814575 
	C120.542862,136.923416 120.757637,137.894714 120.689697,139.079132 
	C118.068794,145.966797 111.533241,148.168045 106.444099,151.564957 
	C102.126465,154.446899 99.697624,156.630615 101.079163,160.929260 
	C101.391129,162.800308 101.569458,164.373779 101.439941,166.005844 
	C100.226669,167.199966 99.321243,168.335495 98.241516,169.567581 
	C97.845184,169.813705 97.648788,169.991577 97.152687,170.369843 
	C95.972908,172.211105 91.046890,169.169479 92.914719,173.971130 
	C92.946693,173.990952 92.984634,173.926071 92.655685,173.965698 
	C92.043350,174.335480 91.759956,174.665634 91.256721,175.088623 
	C90.596687,175.619659 90.156494,176.057861 89.332336,176.630188 
	C84.936478,175.486359 80.924599,174.208420 76.935631,172.550919 
	C74.662102,167.661026 76.127869,161.954483 72.265984,157.836426 
	C71.535141,157.057098 71.906532,154.930435 72.233658,153.534241 
	C73.061569,150.000549 74.153488,146.528702 75.440811,143.055923 
	C77.003365,142.065277 78.264771,141.050797 79.515526,140.044891 
	C79.839844,140.726395 80.271858,141.634216 81.231682,143.651138 
	C82.354431,139.379257 83.177269,136.248459 84.000122,133.117676 
z"/>
<path fill="#7E3908" opacity="1.000000" stroke="none" 
	d="
M345.023193,220.780884 
	C356.249054,216.298065 363.005890,220.842224 363.035614,232.429596 
	C363.064209,243.583527 363.628937,254.762497 363.066620,265.885406 
	C362.184174,283.341675 352.932831,291.638824 335.380432,291.544495 
	C332.240540,291.527649 329.047852,291.120605 325.976135,290.450836 
	C314.282867,287.901306 307.610901,280.443787 307.205078,268.492554 
	C306.770020,255.681137 306.889465,242.841492 307.119995,230.020523 
	C307.248901,222.853012 311.425323,219.183960 318.624542,218.980347 
	C326.406464,218.760284 330.845062,221.912262 331.234528,229.233307 
	C331.799957,239.863419 331.564423,250.535858 331.688446,261.190033 
	C331.713623,263.352692 331.323883,265.698822 332.040039,267.619293 
	C332.632446,269.207947 334.675079,271.420258 335.891846,271.311218 
	C337.349823,271.180511 339.672119,268.957520 339.780762,267.503204 
	C340.300873,260.540436 340.252197,253.531540 340.298615,246.538330 
	C340.329590,241.876831 340.148102,237.214310 340.121857,232.551926 
	C340.096832,228.100876 340.693726,223.865265 345.023193,220.780884 
M358.649719,226.134262 
	C355.908234,222.059326 351.887177,222.064240 347.960968,223.372299 
	C344.170074,224.635330 343.864716,228.173752 343.903046,231.665970 
	C343.965118,237.322495 344.036957,242.982300 343.914551,248.636612 
	C343.763641,255.607559 343.633911,262.591644 343.076355,269.536407 
	C342.737152,273.761139 339.658325,275.169373 335.636688,275.235229 
	C331.671265,275.300201 329.236664,273.629700 328.570496,269.749237 
	C328.179535,267.471771 328.019043,265.130951 328.002930,262.816895 
	C327.927551,252.002182 328.053925,241.184906 327.870880,230.372559 
	C327.776428,224.794525 325.075928,222.653198 319.070953,222.708786 
	C313.368439,222.761551 310.913239,224.783890 310.854553,230.338058 
	C310.719177,243.145599 310.609467,255.963303 310.976288,268.762939 
	C311.242340,278.044647 316.792450,284.712280 325.576019,286.633148 
	C329.905304,287.579926 334.502655,287.998138 338.919006,287.717224 
	C351.602020,286.910614 358.092438,280.804626 359.289520,268.204773 
	C360.010437,260.616852 359.790405,252.924866 359.728180,245.281815 
	C359.678253,239.154007 359.229340,233.029449 358.649719,226.134262 
z"/>
<path fill="#F7B12F" opacity="1.000000" stroke="none" 
	d="
M84.029686,209.529633 
	C82.217285,210.969009 80.404884,212.408401 77.882195,213.907013 
	C69.119492,211.265533 61.067081,208.564835 52.852612,205.676666 
	C52.418415,205.261932 52.107178,205.175781 51.815582,205.218384 
	C51.874317,205.206024 51.800568,205.300751 51.728912,204.956543 
	C45.006351,198.892609 44.575409,192.276230 48.472866,184.768326 
	C50.046085,181.737747 50.943638,178.356400 52.360729,175.112564 
	C52.572781,175.090439 52.971375,174.938965 52.971710,174.957062 
	C52.972046,174.975143 52.945614,174.997787 52.951530,175.305145 
	C53.326256,175.732513 53.695072,175.852554 54.033730,175.983490 
	C54.003571,175.994400 54.006226,175.930313 54.114265,176.263885 
	C56.829979,177.727753 59.437660,178.858047 62.020943,179.996826 
	C61.996544,180.005341 62.001209,179.953888 61.914024,180.281738 
	C62.239178,180.729813 62.651520,180.850037 63.034481,180.982681 
	C63.005100,180.995102 63.008347,180.931396 63.126602,181.261169 
	C65.824532,182.615158 68.404205,183.639389 71.323250,184.781387 
	C77.052490,186.286667 82.442375,187.674164 87.941879,189.372009 
	C90.127708,190.812424 90.970535,192.110718 89.580719,194.552856 
	C88.132904,197.096939 87.100639,199.897675 86.077477,202.656937 
	C85.248177,204.893433 84.701637,207.234787 84.029686,209.529633 
z"/>
<path fill="#7E3609" opacity="1.000000" stroke="none" 
	d="
M187.206421,238.973053 
	C183.514938,238.543915 180.129593,238.631149 176.906723,237.949860 
	C171.889175,236.889191 169.114746,232.992111 169.355011,228.212082 
	C169.617966,222.980270 172.668732,219.402802 178.223190,219.226334 
	C188.206924,218.909119 198.226135,218.827835 208.197983,219.314682 
	C215.314484,219.662109 218.034653,224.173248 215.581894,231.247299 
	C213.905228,236.083023 211.291580,240.612747 208.906235,245.179749 
	C204.549423,253.521362 200.051270,261.789185 195.135223,270.979218 
	C200.118851,270.979218 204.052917,270.874146 207.979309,271.002991 
	C214.402908,271.213745 217.752274,274.202820 218.021545,279.742401 
	C218.317062,285.821564 215.544373,289.733459 209.087860,290.059357 
	C198.134247,290.612305 187.115067,290.720795 176.164001,290.185913 
	C168.080444,289.791046 165.352646,285.082642 168.653946,277.359619 
	C172.044525,269.427826 176.511963,261.960693 180.395676,254.233719 
	C182.897156,249.256836 185.195831,244.178055 187.206421,238.973053 
M177.528427,267.051880 
	C175.851288,270.306213 174.059830,273.507507 172.520599,276.825836 
	C169.227173,283.925781 170.989975,286.828644 178.761429,286.943604 
	C187.250443,287.069153 195.742706,286.989594 204.233505,286.974670 
	C211.470886,286.961945 214.149155,285.288116 214.224594,280.792633 
	C214.301254,276.224182 211.960358,274.788422 204.345306,274.765869 
	C199.625992,274.751862 194.906616,274.763275 189.042389,274.763275 
	C194.140671,265.195251 198.652863,256.910583 202.986816,248.533691 
	C206.265961,242.195587 209.465179,235.806595 212.407028,229.307632 
	C213.838135,226.146118 212.606430,223.251831 208.987396,223.147095 
	C198.678772,222.848724 188.344391,222.782364 178.050537,223.268417 
	C176.305618,223.350815 173.490082,226.555374 173.385559,228.440369 
	C173.277679,230.386078 175.492874,233.050735 177.407043,234.333466 
	C178.965088,235.377548 181.577301,234.938507 183.726074,234.990402 
	C187.086914,235.071564 190.451141,235.011902 194.827744,235.011902 
	C188.749863,246.270203 183.315643,256.336273 177.528427,267.051880 
z"/>
<path fill="#7E3609" opacity="1.000000" stroke="none" 
	d="
M163.233002,227.743439 
	C160.791885,233.740646 158.699005,239.502075 155.979736,244.950912 
	C151.769501,253.387360 147.131668,261.610443 142.112671,270.973267 
	C146.750961,270.973267 150.464432,270.921661 154.175995,270.984467 
	C161.088608,271.101349 164.617081,273.877625 165.012299,279.413086 
	C165.473160,285.868011 162.573914,289.791504 155.452728,290.164337 
	C144.848175,290.719574 134.174210,290.776428 123.569824,290.245361 
	C115.092674,289.820831 112.470917,285.297699 115.647400,277.289154 
	C117.841629,271.757080 120.873360,266.549072 123.645943,261.256531 
	C127.405823,254.079346 131.275787,246.959854 135.537262,238.995682 
	C132.939804,238.864655 131.008545,239.011551 129.192535,238.621704 
	C126.001266,237.936584 122.524025,237.517975 119.819778,235.897583 
	C116.380119,233.836517 115.850212,230.037460 116.719467,226.131042 
	C117.694443,221.749512 120.710327,219.372162 124.824455,219.267395 
	C135.125900,219.005051 145.449966,218.972855 155.743973,219.379654 
	C160.237976,219.557236 163.701736,221.946594 163.233002,227.743439 
M138.924896,240.333069 
	C136.795731,244.288635 134.642563,248.231506 132.542313,252.202393 
	C128.031082,260.731628 123.362022,269.184723 119.120842,277.846863 
	C116.539833,283.118317 117.879776,286.420837 122.875946,286.626373 
	C133.838333,287.077332 144.836716,286.989990 155.808258,286.684906 
	C159.279099,286.588409 161.455551,284.129639 161.231583,280.202667 
	C161.012421,276.360443 158.567215,275.021576 155.247879,274.904694 
	C150.592438,274.740753 145.927933,274.851929 141.268570,274.771515 
	C139.878860,274.747528 138.493393,274.475983 136.324142,274.228729 
	C138.495651,270.138092 140.283020,266.793152 142.050400,263.437714 
	C147.630661,252.843338 153.517975,242.394730 158.659256,231.591217 
	C161.666519,225.271973 159.847900,222.981979 152.918793,222.879150 
	C144.597076,222.755630 136.272263,222.835022 127.948792,222.838974 
	C123.973549,222.840866 120.457222,223.673981 120.081718,228.503357 
	C119.767220,232.548187 122.811325,234.883438 128.306442,234.983429 
	C132.407364,235.058060 136.510727,234.998154 141.473343,234.998154 
	C140.477295,237.097076 139.871735,238.373138 138.924896,240.333069 
z"/>
<path fill="#803609" opacity="1.000000" stroke="none" 
	d="
M73.896194,239.156891 
	C69.344032,239.387466 65.198891,239.617798 61.051846,239.659668 
	C58.684464,239.683594 57.328453,240.281525 57.330914,243.031509 
	C57.333416,245.828156 58.788506,246.369095 61.109772,246.337769 
	C63.767929,246.301880 66.455872,246.192139 69.081871,246.514114 
	C75.124329,247.254944 78.111153,250.754349 77.940491,256.509064 
	C77.779083,261.952179 74.662613,265.330170 68.866562,265.810120 
	C65.274933,266.107574 61.638599,265.865295 57.348454,265.865295 
	C57.348454,270.760162 57.445404,275.031921 57.327023,279.297729 
	C57.119850,286.763000 52.836887,290.702240 45.148430,290.670624 
	C37.726379,290.640106 33.156792,286.767944 33.078560,279.651245 
	C32.895729,263.019470 32.913727,246.382843 33.100704,229.750992 
	C33.173344,223.290039 36.983147,219.317520 43.310497,219.129532 
	C52.616814,218.853027 61.944969,218.872543 71.250740,219.172180 
	C77.362000,219.368973 80.460709,222.318008 81.334679,227.620132 
	C82.265785,233.268875 80.164658,236.692215 73.896194,239.156891 
M77.792885,227.843475 
	C76.833809,224.504227 74.507774,222.935318 71.143272,222.916916 
	C61.996758,222.866867 52.848167,222.773834 43.703915,222.919128 
	C39.460320,222.986557 36.857208,225.173294 36.859116,229.755508 
	C36.866051,246.387131 36.883846,263.018829 36.845119,279.650360 
	C36.834488,284.216827 39.497009,286.260254 43.539082,286.881561 
	C50.636169,287.972443 53.855930,284.543213 53.936874,276.121155 
	C53.978317,271.809052 52.548820,266.152832 54.719360,263.589172 
	C56.643932,261.316010 62.623375,262.404846 66.821236,262.145782 
	C71.840881,261.836029 74.265480,259.872620 74.087318,255.898026 
	C73.881615,251.309174 70.654366,250.185806 66.881248,250.053131 
	C62.775963,249.908783 58.661674,250.020370 54.347939,250.020370 
	C54.347939,245.059586 54.347939,240.708969 54.347939,235.955185 
	C59.727146,235.955185 64.696327,236.088852 69.654846,235.916245 
	C74.284027,235.755096 77.773766,234.002838 77.792885,227.843475 
z"/>
<path fill="#803A07" opacity="1.000000" stroke="none" 
	d="
M296.340820,252.797028 
	C308.698151,264.931183 304.005341,284.793579 287.064087,288.623077 
	C276.581818,290.992523 265.284180,290.193054 254.366699,290.002838 
	C249.359985,289.915588 246.182999,285.814453 246.126846,280.815247 
	C245.930496,263.328705 245.955322,245.834518 246.278763,228.350311 
	C246.380417,222.854599 250.173218,219.343658 255.671371,219.176437 
	C264.153320,218.918457 272.717651,218.536301 281.129761,219.378464 
	C301.379730,221.405716 307.696838,235.697403 296.340820,252.797028 
M249.744995,261.499481 
	C249.722687,267.498413 249.663055,273.497528 249.691010,279.496216 
	C249.710022,283.578125 251.854477,286.677307 255.809341,286.706451 
	C265.602783,286.778687 275.513123,286.944244 285.165283,285.579041 
	C294.147186,284.308655 299.483856,276.721130 299.799866,267.777832 
	C300.046936,260.786285 296.652954,256.675781 287.976318,253.458130 
	C296.428436,247.560043 299.773132,240.504852 297.310272,232.963531 
	C294.400482,224.053650 286.622559,223.335434 279.046478,222.916519 
	C272.233185,222.539810 265.386169,222.667709 258.555725,222.737030 
	C252.044113,222.803085 249.898178,224.959671 249.827988,231.503540 
	C249.724319,241.168076 249.767609,250.834198 249.744995,261.499481 
z"/>
<path fill="#81390B" opacity="1.000000" stroke="none" 
	d="
M109.902596,256.000000 
	C109.901787,263.650299 109.983765,270.801788 109.879303,277.950562 
	C109.749603,286.826782 105.863716,290.767303 97.557068,290.689117 
	C89.358047,290.611969 85.141281,286.340729 85.112587,277.859619 
	C85.060265,262.395203 85.051720,246.930298 85.116814,231.465973 
	C85.151665,223.186432 89.278542,219.037094 97.264412,218.970703 
	C105.395073,218.903107 109.648987,222.825790 109.849953,231.057037 
	C110.048767,239.200272 109.899323,247.352005 109.902596,256.000000 
M90.547203,225.149399 
	C90.011856,226.862274 89.023979,228.571854 89.011490,230.288544 
	C88.892715,246.609650 88.779831,262.935303 89.119690,279.250183 
	C89.167793,281.558990 91.107727,284.724182 93.112137,285.929138 
	C99.218597,289.600189 105.963028,285.533173 106.012558,278.434509 
	C106.118301,263.279022 106.063522,248.122330 106.045815,232.966156 
	C106.034477,223.264267 100.136589,219.951813 90.547203,225.149399 
z"/>
<path fill="#EFDDB3" opacity="1.000000" stroke="none" 
	d="
M42.020390,142.988541 
	C42.156277,140.840759 42.292164,138.692978 42.896088,136.174103 
	C44.616741,135.803024 45.869362,135.803024 46.974018,135.803024 
	C46.612751,133.042252 46.287300,130.555176 45.961845,128.068100 
	C46.064075,127.872246 46.166302,127.676399 46.448967,127.119987 
	C46.629398,126.759422 46.853924,126.508606 46.853924,126.508606 
	C46.853924,126.508606 47.054348,126.191597 47.449791,126.031433 
	C48.707664,126.469536 49.570095,127.067810 50.434669,127.662933 
	C53.003799,119.056679 56.544052,117.449532 64.957367,121.067955 
	C64.957367,121.067955 64.995178,121.007950 65.074677,121.469971 
	C65.076958,122.954407 64.999725,123.976822 64.587700,124.989098 
	C63.002716,124.300636 61.752537,123.622299 60.250122,122.807106 
	C60.922119,125.691498 61.505238,128.066071 65.237259,126.059959 
	C70.503944,124.213898 74.504036,124.635506 76.969551,129.968872 
	C77.266594,130.611435 78.886475,130.642456 80.174667,130.968353 
	C80.643845,130.984070 80.831573,130.988327 81.019310,130.992569 
	C81.340912,131.104797 81.591995,131.305313 81.733971,132.133652 
	C80.593407,134.288284 79.706108,137.040131 78.347549,137.296707 
	C74.841179,137.958939 71.126549,137.518494 67.037766,137.518494 
	C66.832726,138.243744 66.431046,139.664520 65.866974,141.341080 
	C65.123070,141.689484 64.541550,141.782104 63.831413,141.607254 
	C63.141750,140.674118 62.580708,140.008423 61.121353,138.276871 
	C61.596539,140.712341 61.801456,141.762604 61.935234,143.114380 
	C60.529873,144.935715 59.195648,146.455505 57.596569,147.845764 
	C55.997585,147.973038 54.663456,148.229858 53.329330,148.486694 
	C52.819103,148.617813 52.308876,148.748932 51.400230,148.553864 
	C50.932598,147.482529 50.863388,146.737366 50.669617,144.651093 
	C49.787655,146.865875 49.395042,147.851807 49.002426,148.837738 
	C48.776531,148.851822 48.550632,148.865921 47.880928,148.817780 
	C47.268776,148.645599 47.096546,148.544189 46.920437,148.451324 
	C46.603058,148.298355 46.285683,148.145386 45.456566,147.593231 
	C44.757477,146.864166 44.570129,146.534317 44.382782,146.204453 
	C44.104500,145.895294 43.826221,145.586136 43.552795,144.851227 
	C44.612648,143.964706 45.667645,143.503922 46.722641,143.043137 
	C46.479355,142.471466 46.236073,141.899780 45.992790,141.328110 
	C44.668655,141.881592 43.344521,142.435059 42.020390,142.988541 
M54.734512,126.072372 
	C54.903938,125.258148 55.073364,124.443916 55.242790,123.629692 
	C54.838997,123.617058 54.435207,123.604431 54.031418,123.591797 
	C54.133080,124.547958 54.234737,125.504120 54.734512,126.072372 
M43.570278,139.306396 
	C43.775925,139.031754 43.981571,138.757126 44.187218,138.482483 
	C43.900875,138.658844 43.614529,138.835190 43.570278,139.306396 
z"/>
<path fill="#FCFCFC" opacity="1.000000" stroke="none" 
	d="
M475.162903,335.968903 
	C465.625244,337.048706 457.654266,332.739990 449.968994,328.114990 
	C448.240723,327.074921 447.459198,323.870911 447.114136,321.534271 
	C447.026794,320.942780 450.216217,319.577118 452.039764,319.071655 
	C454.047363,318.515167 456.216187,318.540161 458.820740,318.542603 
	C460.451141,318.821320 461.575562,318.869293 462.957275,319.302460 
	C464.726501,319.920410 466.238464,320.153137 467.911530,320.637329 
	C469.383057,321.352173 470.693420,321.815613 472.066803,322.549866 
	C473.069153,322.868164 474.008484,322.915619 474.973999,322.981506 
	C475.000153,322.999908 475.052734,323.036316 475.042664,323.395508 
	C477.225037,326.165344 479.417480,328.576019 481.752197,331.349976 
	C479.650604,333.131836 477.406769,334.550385 475.162903,335.968903 
z"/>
<path fill="#FCFCFC" opacity="1.000000" stroke="none" 
	d="
M486.196838,295.779358 
	C486.678925,296.315094 487.161041,296.850861 487.847473,298.039917 
	C488.080109,298.916809 488.108429,299.140381 488.136719,299.363953 
	C488.464355,300.349121 488.791962,301.334290 489.062988,302.840881 
	C489.561066,303.906891 490.115753,304.451447 490.670410,304.996002 
	C490.727814,309.433655 490.785187,313.871338 490.450104,318.736206 
	C489.668274,319.896820 489.278900,320.630188 488.889526,321.363556 
	C488.652954,322.670624 488.416412,323.977722 487.741577,325.786560 
	C485.287170,327.304871 486.391998,332.145996 482.107361,330.081482 
	C481.247711,327.910309 480.422638,326.142761 479.680023,324.341217 
	C478.675537,321.904449 477.099579,321.681854 475.052734,323.036316 
	C475.052734,323.036316 475.000153,322.999908 474.983887,322.763519 
	C474.967621,322.527130 474.944214,322.091064 475.022583,321.803772 
	C475.194000,321.341125 475.287079,321.165771 475.701477,320.980774 
	C476.341705,319.976624 476.660645,318.982147 476.976837,317.618774 
	C476.682892,316.151428 476.391724,315.052948 476.062500,313.570099 
	C476.027985,312.158051 476.031616,311.130341 476.353577,309.896301 
	C476.832306,308.439667 476.992645,307.189362 477.346313,305.765228 
	C477.738647,304.952637 477.937653,304.313873 478.136627,303.675079 
	C478.892151,301.192688 479.322083,298.540009 480.503906,296.280609 
	C481.490875,294.393738 483.318024,292.743195 485.867981,295.530090 
	C486.187805,295.756042 486.196838,295.779358 486.196838,295.779358 
z"/>
<path fill="#E8862B" opacity="1.000000" stroke="none" 
	d="
M57.861427,147.975311 
	C59.195648,146.455505 60.529873,144.935715 62.214256,143.046036 
	C63.029629,142.409012 63.494835,142.141876 63.960037,141.874725 
	C64.541550,141.782104 65.123070,141.689484 66.187164,141.316956 
	C67.781540,141.598099 68.893318,142.159149 70.370644,142.819031 
	C71.489044,142.877625 72.241905,142.837418 73.352219,142.836945 
	C74.186340,142.928482 74.663002,142.980286 75.139664,143.032089 
	C74.153488,146.528702 73.061569,150.000549 72.233658,153.534241 
	C71.906532,154.930435 71.535141,157.057098 72.265984,157.836426 
	C76.127869,161.954483 74.662102,167.661026 76.545410,172.567886 
	C75.090668,172.961731 74.049065,172.959061 73.003479,172.980927 
	C72.999504,173.005493 73.048225,173.008606 72.968750,172.792587 
	C72.722153,172.278763 72.468033,172.136002 71.755852,172.067154 
	C71.137680,171.930878 70.890549,171.875702 70.678268,171.572891 
	C70.727829,170.991974 70.779648,170.664597 70.904289,169.885757 
	C69.679008,163.355286 68.417999,157.282166 67.111702,150.990891 
	C60.266403,152.631424 58.785107,157.766968 57.501881,163.206848 
	C56.783981,163.089081 56.371002,163.044586 55.983852,162.991745 
	C56.009682,162.983398 56.019711,163.036758 55.869667,162.768600 
	C55.166885,162.255081 54.614151,162.009720 53.936707,161.582397 
	C53.599319,161.185318 53.346321,161.040771 53.052994,160.966797 
	C54.069214,157.564926 55.085438,154.163071 55.932510,150.435760 
	C55.763367,150.110321 55.793636,149.977448 55.857643,149.985504 
	C55.921650,149.993546 55.984867,149.881073 56.278313,149.843231 
	C57.001652,149.195358 57.431538,148.585327 57.861427,147.975311 
z"/>
<path fill="#EB882C" opacity="1.000000" stroke="none" 
	d="
M100.945526,160.631714 
	C99.697624,156.630615 102.126465,154.446899 106.444099,151.564957 
	C111.533241,148.168045 118.068794,145.966797 121.111099,139.161285 
	C125.228905,139.023834 128.642593,139.017349 132.056274,139.010864 
	C132.056274,139.010849 131.988464,139.012497 132.047134,139.252121 
	C132.423569,139.664230 132.741318,139.836731 133.059082,140.009216 
	C133.059082,140.009216 132.990753,140.009354 133.060730,140.243347 
	C133.440140,140.654846 133.749573,140.832367 134.058990,141.009872 
	C134.058990,141.009872 133.990509,141.009506 134.060577,141.243439 
	C134.440094,141.654861 134.749542,141.832367 135.058990,142.009872 
	C135.058990,142.009872 134.990646,142.009277 135.058716,142.246796 
	C135.436295,142.660934 135.745789,142.837585 136.055298,143.014221 
	C136.055298,143.014221 135.987747,143.011017 136.029419,143.292145 
	C136.382889,143.848145 136.694702,144.123001 137.006516,144.397858 
	C139.654388,149.666763 142.302277,154.935669 144.676941,160.726700 
	C142.875397,162.529831 141.347061,163.810837 139.585556,165.054581 
	C139.352371,165.017303 138.905701,164.852432 138.929688,164.447418 
	C137.126358,158.413727 135.923584,152.471802 133.300644,147.242157 
	C130.534866,141.727722 126.537666,141.971512 121.539291,145.821091 
	C115.341118,150.594696 108.658287,154.738037 102.207268,159.186203 
	C101.697029,159.538010 101.361992,160.143906 100.945526,160.631714 
z"/>
<path fill="#5E4322" opacity="1.000000" stroke="none" 
	d="
M84.343803,209.328644 
	C84.701637,207.234787 85.248177,204.893433 86.077477,202.656937 
	C87.100639,199.897675 88.132904,197.096939 89.580719,194.552856 
	C90.970535,192.110718 90.127708,190.812424 88.352875,189.325226 
	C93.943947,189.818649 93.016800,184.838913 94.567070,182.322037 
	C94.834892,181.887222 92.918076,180.106750 92.253418,178.668671 
	C97.912163,177.969009 98.738625,176.693863 96.386086,172.602020 
	C95.205757,173.056610 94.044250,173.503967 92.882736,173.951309 
	C91.046890,169.169479 95.972908,172.211105 97.356392,170.640625 
	C98.039627,170.904358 98.193832,171.069427 98.406143,171.557922 
	C99.494408,175.385818 100.822426,178.622635 104.725449,179.399536 
	C101.806007,179.905853 102.054390,181.453903 103.121513,182.977921 
	C104.737274,185.285461 103.892952,190.400742 109.682045,188.589722 
	C114.634598,187.265442 119.181770,185.951370 123.724342,184.621628 
	C126.610771,183.776672 129.490387,182.908478 132.180740,182.364990 
	C124.187248,185.400650 116.386078,188.122040 108.249695,190.901855 
	C108.066582,192.412628 107.887764,194.003433 108.427505,195.293625 
	C110.901222,201.206772 113.576050,207.035782 116.178665,212.895004 
	C114.445747,210.518921 112.276741,208.345276 111.062126,205.728592 
	C107.500122,198.054840 104.324463,190.201981 100.980766,182.426453 
	C100.349251,180.957916 99.640808,179.522446 98.753532,177.609665 
	C93.857803,188.556580 89.257866,198.842117 84.343803,209.328644 
z"/>
<path fill="#EB882C" opacity="1.000000" stroke="none" 
	d="
M148.913086,172.053009 
	C150.575897,175.607559 152.238708,179.162094 153.891693,183.345200 
	C154.896439,189.286423 157.572037,194.481140 155.023071,200.046814 
	C155.023071,200.046814 155.001663,199.997833 154.731750,200.058716 
	C153.954773,200.722794 153.447678,201.326019 152.630280,202.081635 
	C150.213867,203.161484 148.107803,204.088959 146.039352,204.663574 
	C150.833908,198.704529 152.397675,192.734268 148.879044,185.754684 
	C147.195328,182.414841 146.267548,178.693924 145.274567,174.991394 
	C146.672180,173.909149 147.792633,172.981079 148.913086,172.053009 
z"/>
<path fill="#3F250C" opacity="1.000000" stroke="none" 
	d="
M53.014675,205.864136 
	C61.067081,208.564835 69.119492,211.265533 77.589371,214.057312 
	C74.041016,217.503464 69.554520,217.669876 65.020668,215.829712 
	C59.027996,213.397461 52.965397,211.002563 47.344685,207.855957 
	C45.129906,206.616043 44.025166,203.393311 43.006142,201.049744 
	C46.331745,202.450897 49.066158,203.875824 51.800568,205.300751 
	C51.800568,205.300751 51.874317,205.206024 51.951111,205.437393 
	C52.356827,205.733887 52.685753,205.799011 53.014675,205.864136 
z"/>
<path fill="#3F250C" opacity="1.000000" stroke="none" 
	d="
M146.001740,205.016434 
	C148.107803,204.088959 150.213867,203.161484 152.945923,202.102066 
	C153.993866,201.987778 154.415848,202.005447 154.837830,202.023117 
	C153.008408,204.223495 151.609589,207.281937 149.266113,208.457916 
	C143.066650,211.568924 136.615646,214.456635 129.945023,216.231537 
	C126.689995,217.097626 122.722160,215.284851 119.283096,214.316254 
	C121.941505,213.571884 124.393806,213.195908 127.220390,212.814178 
	C132.390381,210.835724 137.186066,208.863022 142.274704,206.898178 
	C143.029053,206.589554 143.490448,206.273056 143.969742,205.980545 
	C143.987640,206.004517 143.972137,205.947479 144.277206,205.945343 
	C145.061615,205.630142 145.540955,205.317078 146.011383,205.000244 
	C146.002487,204.996445 146.001740,205.016434 146.001740,205.016434 
z"/>
<path fill="#EB882C" opacity="1.000000" stroke="none" 
	d="
M51.728912,204.956543 
	C49.066158,203.875824 46.331745,202.450897 43.286667,200.853531 
	C42.307167,198.349075 41.638336,196.017044 41.044220,192.983246 
	C43.177105,186.941650 45.160866,181.571014 47.351383,176.286057 
	C47.834286,175.120972 49.050175,174.259689 50.133858,173.472992 
	C50.942352,174.169876 51.545513,174.652283 52.148678,175.134689 
	C50.943638,178.356400 50.046085,181.737747 48.472866,184.768326 
	C44.575409,192.276230 45.006351,198.892609 51.728912,204.956543 
z"/>
<path fill="#1C1B1B" opacity="1.000000" stroke="none" 
	d="
M482.178741,330.469971 
	C486.391998,332.145996 485.287170,327.304871 487.648041,326.183136 
	C488.703827,327.321838 489.528961,328.515442 490.103180,329.819580 
	C491.505066,333.003479 491.963043,336.010437 489.048340,338.863068 
	C487.359619,340.515869 486.202179,342.711487 485.495148,343.699371 
	C482.779053,341.424591 479.302795,338.513153 475.494690,335.785278 
	C477.406769,334.550385 479.650604,333.131836 481.960815,331.293945 
	C482.027191,330.874573 482.178741,330.469971 482.178741,330.469971 
z"/>
<path fill="#FCCE78" opacity="1.000000" stroke="none" 
	d="
M126.846100,212.819916 
	C124.393806,213.195908 121.941505,213.571884 119.046692,214.005157 
	C118.157784,213.732101 117.711411,213.401779 116.814575,212.993454 
	C116.364120,212.915436 116.008217,212.969727 116.008217,212.969727 
	C116.008217,212.969727 116.117554,212.987793 116.148117,212.941406 
	C113.576050,207.035782 110.901222,201.206772 108.427505,195.293625 
	C107.887764,194.003433 108.066582,192.412628 108.642487,190.963303 
	C110.228844,191.661362 111.548843,192.187958 111.873489,193.077728 
	C114.844093,201.219543 118.646339,208.667252 126.846100,212.819916 
z"/>
<path fill="#EDBD39" opacity="1.000000" stroke="none" 
	d="
M477.152985,305.939056 
	C476.992645,307.189362 476.832306,308.439667 475.997498,309.865540 
	C471.115387,312.999847 466.907684,315.958557 462.699982,318.917236 
	C461.575562,318.869293 460.451141,318.821320 459.114838,318.505920 
	C458.902954,318.238525 459.017639,317.761932 459.338409,317.351776 
	C464.206543,311.840942 469.156250,307.335876 476.382660,305.840759 
	C476.811523,305.888000 476.982269,305.913513 477.152985,305.939056 
z"/>
<path fill="#EEDBB2" opacity="1.000000" stroke="none" 
	d="
M75.440811,143.055923 
	C74.663002,142.980286 74.186340,142.928482 73.338028,142.497696 
	C72.379173,141.507034 71.791969,140.895340 71.204758,140.283661 
	C70.804871,141.095840 70.404984,141.908020 70.005096,142.720200 
	C68.893318,142.159149 67.781540,141.598099 66.349556,141.061172 
	C66.431046,139.664520 66.832726,138.243744 67.037766,137.518494 
	C71.126549,137.518494 74.841179,137.958939 78.347549,137.296707 
	C79.706108,137.040131 80.593407,134.288284 81.837708,132.355408 
	C82.480927,132.313446 82.981827,132.589279 83.741425,132.991394 
	C83.177269,136.248459 82.354431,139.379257 81.231682,143.651138 
	C80.271858,141.634216 79.839844,140.726395 79.515526,140.044891 
	C78.264771,141.050797 77.003365,142.065277 75.440811,143.055923 
M75.551636,140.510406 
	C75.551636,140.510406 75.481049,140.545517 75.551636,140.510406 
z"/>
<path fill="#EDBD39" opacity="1.000000" stroke="none" 
	d="
M469.447662,299.773834 
	C470.655548,300.536713 471.863434,301.299591 472.884399,302.504517 
	C467.516418,306.701324 462.335297,310.456116 457.154175,314.210876 
	C456.714325,313.006287 456.274445,311.801636 456.049438,309.990112 
	C460.658752,306.180115 465.053192,302.976959 469.447662,299.773834 
z"/>
<path fill="#B6B2AB" opacity="1.000000" stroke="none" 
	d="
M120.931648,135.677063 
	C120.317146,134.608765 119.702637,133.540451 119.046112,131.923492 
	C119.015945,130.832184 119.027786,130.289520 119.039627,129.746857 
	C119.251640,124.663406 123.095810,126.017548 125.902290,126.111328 
	C129.771591,126.240608 128.230621,129.078491 127.690750,131.646393 
	C125.213425,133.312531 123.072540,134.494797 120.931648,135.677063 
z"/>
<path fill="#252016" opacity="1.000000" stroke="none" 
	d="
M457.194336,314.524689 
	C462.335297,310.456116 467.516418,306.701324 473.058441,302.760559 
	C474.402832,303.034485 475.386322,303.494446 476.470032,304.059631 
	C476.421692,304.716278 476.273132,305.267700 476.124573,305.819092 
	C469.156250,307.335876 464.206543,311.840942 459.359406,317.107605 
	C458.451263,316.461884 457.842896,315.650177 457.194336,314.524689 
z"/>
<path fill="#969593" opacity="1.000000" stroke="none" 
	d="
M149.155502,171.832855 
	C147.792633,172.981079 146.672180,173.909149 145.021423,174.955109 
	C144.321701,175.091309 144.152298,175.109589 143.971008,174.740997 
	C142.578995,171.266678 141.198853,168.179260 139.818726,165.091858 
	C141.347061,163.810837 142.875397,162.529831 144.700806,161.092346 
	C146.464569,164.494812 147.931244,168.053741 149.155502,171.832855 
z"/>
<path fill="#969593" opacity="1.000000" stroke="none" 
	d="
M52.360729,175.112564 
	C51.545513,174.652283 50.942352,174.169876 50.137341,173.170639 
	C49.914295,171.552795 49.893097,170.451767 49.871895,169.350754 
	C50.736343,166.592499 51.600788,163.834229 52.759113,161.021393 
	C53.346321,161.040771 53.599319,161.185318 53.983345,161.925888 
	C54.776371,162.646469 55.398041,162.841614 56.019711,163.036758 
	C56.019711,163.036758 56.009682,162.983398 55.974430,163.289856 
	C56.314575,164.051819 56.689976,164.507324 56.782745,165.176086 
	C55.323872,168.572556 54.147621,171.755753 52.971375,174.938965 
	C52.971375,174.938965 52.572781,175.090439 52.360729,175.112564 
z"/>
<path fill="#252016" opacity="1.000000" stroke="none" 
	d="
M469.221802,299.511536 
	C465.053192,302.976959 460.658752,306.180115 455.997650,309.598694 
	C455.532074,308.513977 455.333130,307.213776 455.485107,305.453552 
	C458.929688,302.668976 462.023346,300.344452 465.117035,298.019897 
	C466.410004,298.429688 467.702972,298.839478 469.221802,299.511536 
z"/>
<path fill="#493018" opacity="1.000000" stroke="none" 
	d="
M120.629868,135.814575 
	C123.072540,134.494797 125.213425,133.312531 127.683922,132.015121 
	C129.356689,134.013748 130.699829,136.127533 132.049622,138.626083 
	C128.642593,139.017349 125.228905,139.023834 121.393814,138.948181 
	C120.757637,137.894714 120.542862,136.923416 120.629868,135.814575 
z"/>
<path fill="#5E4322" opacity="1.000000" stroke="none" 
	d="
M65.083969,120.714310 
	C56.544052,117.449532 53.003799,119.056679 50.434669,127.662933 
	C49.570095,127.067810 48.707664,126.469536 47.489616,125.848175 
	C49.022778,123.861923 50.803268,121.778320 52.823727,119.961586 
	C56.589542,116.575500 61.005119,116.789375 65.083969,120.714310 
z"/>
<path fill="#5E4322" opacity="1.000000" stroke="none" 
	d="
M49.552204,169.385712 
	C49.893097,170.451767 49.914295,171.552795 49.932014,172.956146 
	C49.050175,174.259689 47.834286,175.120972 47.351383,176.286057 
	C45.160866,181.571014 43.177105,186.941650 41.016304,192.642700 
	C40.644993,192.466019 40.012280,191.781082 40.161377,191.411926 
	C43.130966,184.059647 46.190884,176.743851 49.552204,169.385712 
z"/>
<path fill="#5E4322" opacity="1.000000" stroke="none" 
	d="
M79.893234,130.956924 
	C78.886475,130.642456 77.266594,130.611435 76.969551,129.968872 
	C74.504036,124.635506 70.503944,124.213898 65.228661,125.786728 
	C64.847954,125.355988 64.885231,125.177605 64.922501,124.999229 
	C64.999725,123.976822 65.076958,122.954407 65.041824,121.483307 
	C70.181107,123.350006 76.170860,124.364189 79.920547,130.009583 
	C80.011063,130.532227 79.893234,130.956924 79.893234,130.956924 
z"/>
<path fill="#EDBD39" opacity="1.000000" stroke="none" 
	d="
M464.818481,297.790405 
	C462.023346,300.344452 458.929688,302.668976 455.523621,305.114258 
	C456.005676,298.652435 458.321838,296.742981 464.818481,297.790405 
z"/>
<path fill="#5E4322" opacity="1.000000" stroke="none" 
	d="
M118.624588,129.887848 
	C119.027786,130.289520 119.015945,130.832184 118.959122,131.620544 
	C114.537971,133.858459 108.968155,130.574295 105.063057,134.940109 
	C104.972015,135.041885 103.748581,134.130753 102.798294,133.502533 
	C107.765343,132.218262 112.987442,131.123566 118.624588,129.887848 
z"/>
<path fill="#5E4322" opacity="1.000000" stroke="none" 
	d="
M155.398376,200.064850 
	C157.572037,194.481140 154.896439,189.286423 153.997223,183.721100 
	C156.884247,188.784851 159.760468,194.090805 155.398376,200.064850 
z"/>
<path fill="#EEDBB2" opacity="1.000000" stroke="none" 
	d="
M45.739449,127.984238 
	C46.287300,130.555176 46.612751,133.042252 46.974018,135.803024 
	C45.869362,135.803024 44.616741,135.803024 43.153580,135.859253 
	C43.801041,133.243790 44.659042,130.572083 45.739449,127.984238 
z"/>
<path fill="#EEDBB2" opacity="1.000000" stroke="none" 
	d="
M42.081055,143.268188 
	C43.344521,142.435059 44.668655,141.881592 45.992790,141.328110 
	C46.236073,141.899780 46.479355,142.471466 46.722641,143.043137 
	C45.667645,143.503922 44.612648,143.964706 43.319267,144.644257 
	C42.767826,144.424606 42.454773,143.986221 42.081055,143.268188 
z"/>
<path fill="#EEDBB2" opacity="1.000000" stroke="none" 
	d="
M57.596569,147.845764 
	C57.431538,148.585327 57.001652,149.195358 56.221130,149.740753 
	C55.870499,149.676132 55.516109,149.637680 55.516109,149.637680 
	C55.516109,149.637680 55.793636,149.977448 55.793636,149.977448 
	C55.793636,149.977448 55.763367,150.110321 55.711548,150.144196 
	C54.969219,149.773972 54.278702,149.369858 53.458755,148.726196 
	C54.663456,148.229858 55.997585,147.973038 57.596569,147.845764 
z"/>
<path fill="#FAFAFA" opacity="1.000000" stroke="none" 
	d="
M490.608032,304.709961 
	C490.115753,304.451447 489.561066,303.906891 488.975891,303.170837 
	C489.478790,303.460907 490.012177,303.942444 490.608032,304.709961 
z"/>
<path fill="#FAFAFA" opacity="1.000000" stroke="none" 
	d="
M476.382660,305.840759 
	C476.273132,305.267700 476.421692,304.716278 476.796753,303.798523 
	C477.146790,303.774994 477.405548,303.875885 477.968079,303.704956 
	C477.937653,304.313873 477.738647,304.952637 477.346313,305.765228 
	C476.982269,305.913513 476.811523,305.888000 476.382660,305.840759 
z"/>
<path fill="#EEDBB2" opacity="1.000000" stroke="none" 
	d="
M49.335648,148.865479 
	C49.395042,147.851807 49.787655,146.865875 50.669617,144.651093 
	C50.863388,146.737366 50.932598,147.482529 51.003124,148.532913 
	C50.559250,148.856506 50.114059,148.874863 49.335648,148.865479 
z"/>
<path fill="#FAFAFA" opacity="1.000000" stroke="none" 
	d="
M489.020233,321.164001 
	C489.278900,320.630188 489.668274,319.896820 490.318298,319.086548 
	C490.102905,319.661285 489.626923,320.312897 489.020233,321.164001 
z"/>
<path fill="#5E4322" opacity="1.000000" stroke="none" 
	d="
M154.983994,201.696350 
	C154.415848,202.005447 153.993866,201.987778 153.256256,201.949677 
	C153.447678,201.326019 153.954773,200.722794 154.756897,200.067749 
	C155.078033,200.467148 155.104111,200.918381 154.983994,201.696350 
z"/>
<path fill="#EEDBB2" opacity="1.000000" stroke="none" 
	d="
M46.832352,148.546509 
	C47.096546,148.544189 47.268776,148.645599 47.542164,148.795425 
	C47.346226,148.770767 47.045246,148.706238 46.832352,148.546509 
z"/>
<path fill="#FAFAFA" opacity="1.000000" stroke="none" 
	d="
M486.148071,295.716309 
	C486.196838,295.779358 486.187805,295.756042 486.182373,295.768188 
	C486.176910,295.780334 486.318878,295.606323 486.318878,295.606323 
	C486.318878,295.606323 486.099335,295.653290 486.148071,295.716309 
z"/>
<path fill="#EEDBB2" opacity="1.000000" stroke="none" 
	d="
M44.366806,146.406403 
	C44.570129,146.534317 44.757477,146.864166 44.969494,147.388168 
	C44.779720,147.257660 44.565277,146.932999 44.366806,146.406403 
z"/>
<path fill="#EEDBB2" opacity="1.000000" stroke="none" 
	d="
M46.735558,126.482422 
	C46.853924,126.508606 46.629398,126.759422 46.565147,126.809631 
	C46.500896,126.859848 46.617188,126.456245 46.735558,126.482422 
z"/>
<path fill="#493018" opacity="1.000000" stroke="none" 
	d="
M137.025940,144.036774 
	C136.694702,144.123001 136.382889,143.848145 136.030579,143.258362 
	C136.341843,143.187515 136.693604,143.431610 137.025940,144.036774 
z"/>
<path fill="#5E4322" opacity="1.000000" stroke="none" 
	d="
M116.108627,212.958038 
	C116.008217,212.969727 116.364120,212.915436 116.543808,212.922012 
	C116.723488,212.928589 116.458229,213.027420 116.458229,213.027420 
	C116.458229,213.027420 116.209045,212.946365 116.108627,212.958038 
z"/>
<path fill="#493018" opacity="1.000000" stroke="none" 
	d="
M136.068954,142.686798 
	C135.745789,142.837585 135.436295,142.660934 135.058716,142.212616 
	C135.354645,142.080429 135.718628,142.219910 136.068954,142.686798 
z"/>
<path fill="#FAFAFA" opacity="1.000000" stroke="none" 
	d="
M488.307922,299.205139 
	C488.108429,299.140381 488.080109,298.916809 488.022552,298.356567 
	C488.155243,298.362030 488.317200,298.704193 488.307922,299.205139 
z"/>
<path fill="#493018" opacity="1.000000" stroke="none" 
	d="
M135.097778,141.675049 
	C134.749542,141.832367 134.440094,141.654861 134.060333,141.209198 
	C134.372208,141.074097 134.754395,141.207169 135.097778,141.675049 
z"/>
<path fill="#493018" opacity="1.000000" stroke="none" 
	d="
M134.097778,140.675049 
	C133.749573,140.832367 133.440140,140.654846 133.060364,140.209198 
	C133.372192,140.074097 133.754379,140.207169 134.097778,140.675049 
z"/>
<path fill="#493018" opacity="1.000000" stroke="none" 
	d="
M133.093292,139.683105 
	C132.741318,139.836731 132.423569,139.664230 132.045700,139.218231 
	C132.366241,139.082153 132.746872,139.219589 133.093292,139.683105 
z"/>
<path fill="#EEDBB2" opacity="1.000000" stroke="none" 
	d="
M80.174667,130.968353 
	C79.893234,130.956924 80.011063,130.532227 80.083488,130.324417 
	C80.451508,130.183533 80.679619,130.345505 80.929771,130.797546 
	C80.831573,130.988327 80.643845,130.984070 80.174667,130.968353 
z"/>
<path fill="#F2C310" opacity="1.000000" stroke="none" 
	d="
M463.502014,275.160522 
	C465.042084,277.581665 467.534943,280.265045 467.015167,282.090668 
	C466.442291,284.102722 463.161652,286.577820 460.958679,286.681274 
	C450.650879,287.165222 440.302063,287.111786 429.979889,286.822449 
	C424.132324,286.658508 422.361023,283.596069 425.068237,277.979584 
	C429.402283,268.987976 434.295807,260.265533 438.974182,251.440598 
	C441.690491,246.316742 444.448486,241.214966 447.762604,235.030518 
	C443.712250,235.030518 440.517456,235.071152 437.324280,235.016357 
	C435.164520,234.979294 432.546967,235.528793 430.962860,234.517670 
	C428.893219,233.196609 426.345062,230.550262 426.411041,228.553635 
	C426.474457,226.633484 429.525574,223.305786 431.405487,223.203705 
	C441.367981,222.662704 451.377228,222.822128 461.365601,223.000809 
	C465.203979,223.069473 466.671478,225.587921 465.608704,229.193253 
	C464.909058,231.566727 463.881653,233.882141 462.719513,236.074341 
	C456.101685,248.557922 449.399139,260.996613 441.871216,275.044556 
	C449.747467,275.044556 456.437012,275.044556 463.502014,275.160522 
z"/>
<path fill="#F2C310" opacity="1.000000" stroke="none" 
	d="
M371.621704,278.904724 
	C379.229889,264.296448 386.688721,250.056412 394.570557,235.008789 
	C389.483612,235.008789 385.220459,235.098465 380.962677,234.986008 
	C375.663147,234.846024 372.887299,232.635910 373.068451,228.680252 
	C373.291626,223.806335 376.783691,222.797455 380.743134,222.755875 
	C388.906982,222.670074 397.074341,222.603592 405.236328,222.748810 
	C413.071533,222.888199 414.902771,225.655121 411.322723,232.811737 
	C405.961243,243.529495 400.080109,253.986923 394.444733,264.568268 
	C392.838654,267.584015 391.318329,270.645447 389.297607,274.584778 
	C394.193573,274.584778 398.124054,274.602173 402.054199,274.574097 
	C403.217896,274.565735 404.382843,274.338684 405.543457,274.366913 
	C411.423309,274.509918 414.643921,276.816803 414.607178,280.792358 
	C414.570770,284.733734 411.382446,286.935242 405.399628,286.963531 
	C396.235260,287.006805 387.067963,287.086304 377.906769,286.904114 
	C371.760590,286.781952 370.630554,285.238525 371.621704,278.904724 
z"/>
<path fill="#F7B12F" opacity="1.000000" stroke="none" 
	d="
M101.079163,160.929260 
	C101.361992,160.143906 101.697029,159.538010 102.207268,159.186203 
	C108.658287,154.738037 115.341118,150.594696 121.539291,145.821091 
	C126.537666,141.971512 130.534866,141.727722 133.300644,147.242157 
	C135.923584,152.471802 137.126358,158.413727 138.594482,164.545258 
	C127.950455,169.358032 117.665611,173.667969 107.129639,177.728180 
	C105.108589,174.726486 103.338661,171.974518 101.442978,168.907211 
	C101.460747,167.710342 101.604263,166.828796 101.747787,165.947266 
	C101.569458,164.373779 101.391129,162.800308 101.079163,160.929260 
z"/>
<path fill="#969593" opacity="1.000000" stroke="none" 
	d="
M73.007462,172.956375 
	C74.049065,172.959061 75.090668,172.961731 76.522491,172.947433 
	C80.924599,174.208420 84.936478,175.486359 89.433319,177.078293 
	C90.053558,177.980713 90.188843,178.569138 90.004959,179.389832 
	C82.016747,182.800690 75.336800,180.130966 73.007462,172.956375 
z"/>
<path fill="#E8862B" opacity="1.000000" stroke="none" 
	d="
M90.324120,179.157578 
	C90.188843,178.569138 90.053558,177.980713 89.817291,176.944168 
	C90.156494,176.057861 90.596687,175.619659 91.621201,175.070816 
	C92.465240,174.615479 92.724937,174.270767 92.984634,173.926071 
	C92.984634,173.926071 92.946693,173.990952 92.914719,173.971130 
	C94.044250,173.503967 95.205757,173.056610 96.386086,172.602020 
	C98.738625,176.693863 97.912163,177.969009 91.971054,178.708908 
	C91.071800,179.071426 90.697960,179.114502 90.324120,179.157578 
z"/>
<path fill="#5E4322" opacity="1.000000" stroke="none" 
	d="
M101.439941,166.005844 
	C101.604263,166.828796 101.460747,167.710342 101.136566,168.962097 
	C100.401840,169.660126 99.847771,169.987946 99.077072,170.101608 
	C98.712242,169.748672 98.564034,169.609863 98.415817,169.471039 
	C99.321243,168.335495 100.226669,167.199966 101.439941,166.005844 
z"/>
<path fill="#5E4322" opacity="1.000000" stroke="none" 
	d="
M97.681725,170.468506 
	C97.648788,169.991577 97.845184,169.813705 98.241516,169.567581 
	C98.564034,169.609863 98.712242,169.748672 98.990860,170.318207 
	C98.929230,171.015457 98.671478,171.177307 98.348030,171.234512 
	C98.193832,171.069427 98.039627,170.904358 97.681725,170.468506 
z"/>
<path fill="#5E4322" opacity="1.000000" stroke="none" 
	d="
M92.655685,173.965698 
	C92.724937,174.270767 92.465240,174.615479 91.841049,174.977982 
	C91.759956,174.665634 92.043350,174.335480 92.655685,173.965698 
z"/>
<path fill="#F2C310" opacity="1.000000" stroke="none" 
	d="
M358.803589,226.518860 
	C359.229340,233.029449 359.678253,239.154007 359.728180,245.281815 
	C359.790405,252.924866 360.010437,260.616852 359.289520,268.204773 
	C358.092438,280.804626 351.602020,286.910614 338.919006,287.717224 
	C334.502655,287.998138 329.905304,287.579926 325.576019,286.633148 
	C316.792450,284.712280 311.242340,278.044647 310.976288,268.762939 
	C310.609467,255.963303 310.719177,243.145599 310.854553,230.338058 
	C310.913239,224.783890 313.368439,222.761551 319.070953,222.708786 
	C325.075928,222.653198 327.776428,224.794525 327.870880,230.372559 
	C328.053925,241.184906 327.927551,252.002182 328.002930,262.816895 
	C328.019043,265.130951 328.179535,267.471771 328.570496,269.749237 
	C329.236664,273.629700 331.671265,275.300201 335.636688,275.235229 
	C339.658325,275.169373 342.737152,273.761139 343.076355,269.536407 
	C343.633911,262.591644 343.763641,255.607559 343.914551,248.636612 
	C344.036957,242.982300 343.965118,237.322495 343.903046,231.665970 
	C343.864716,228.173752 344.170074,224.635330 347.960968,223.372299 
	C351.887177,222.064240 355.908234,222.059326 358.803589,226.518860 
z"/>
<path fill="#C2C1BB" opacity="1.000000" stroke="none" 
	d="
M90.004959,179.389832 
	C90.697960,179.114502 91.071800,179.071426 91.728004,178.988098 
	C92.918076,180.106750 94.834892,181.887222 94.567070,182.322037 
	C93.016800,184.838913 93.943947,189.818649 88.243248,189.014908 
	C82.442375,187.674164 77.052490,186.286667 71.249580,184.458557 
	C68.227142,182.989090 65.617744,181.960251 63.008347,180.931396 
	C63.008347,180.931396 63.005100,180.995102 63.154587,180.649597 
	C62.869785,180.187347 62.435497,180.070618 62.001209,179.953888 
	C62.001209,179.953888 61.996544,180.005341 61.912632,179.664001 
	C59.221222,178.191879 56.613724,177.061096 54.006226,175.930313 
	C54.006226,175.930313 54.003571,175.994400 54.124931,175.653229 
	C53.812733,175.207291 53.379173,175.102539 52.945614,174.997787 
	C52.945614,174.997787 52.972046,174.975143 52.971710,174.957062 
	C54.147621,171.755753 55.323872,168.572556 57.099167,165.299881 
	C59.128212,165.821808 60.558212,166.433182 61.994797,167.020996 
	C62.001381,166.997437 61.956196,167.016235 62.044529,167.350540 
	C64.969719,169.063416 67.806572,170.441971 70.643425,171.820541 
	C70.890549,171.875702 71.137680,171.930878 71.855972,172.260498 
	C72.506760,172.785217 72.747124,172.943100 73.048225,173.008606 
	C73.048225,173.008606 72.999504,173.005493 73.003479,172.980927 
	C75.336800,180.130966 82.016747,182.800690 90.004959,179.389832 
z"/>
<path fill="#5E4322" opacity="1.000000" stroke="none" 
	d="
M63.126598,181.261169 
	C65.617744,181.960251 68.227142,182.989090 70.910217,184.340775 
	C68.404205,183.639389 65.824532,182.615158 63.126598,181.261169 
z"/>
<path fill="#5E4322" opacity="1.000000" stroke="none" 
	d="
M54.114265,176.263885 
	C56.613724,177.061096 59.221222,178.191879 61.937027,179.655487 
	C59.437660,178.858047 56.829979,177.727753 54.114265,176.263885 
z"/>
<path fill="#5E4322" opacity="1.000000" stroke="none" 
	d="
M52.951530,175.305145 
	C53.379173,175.102539 53.812733,175.207291 54.155090,175.642303 
	C53.695072,175.852554 53.326256,175.732513 52.951530,175.305145 
z"/>
<path fill="#5E4322" opacity="1.000000" stroke="none" 
	d="
M61.914024,180.281738 
	C62.435497,180.070618 62.869785,180.187347 63.183968,180.637177 
	C62.651520,180.850037 62.239178,180.729813 61.914024,180.281738 
z"/>
<path fill="#EB882C" opacity="1.000000" stroke="none" 
	d="
M52.852612,205.676666 
	C52.685753,205.799011 52.356827,205.733887 51.892372,205.449768 
	C52.107178,205.175781 52.418415,205.261932 52.852612,205.676666 
z"/>
<path fill="#ED7021" opacity="1.000000" stroke="none" 
	d="
M177.704926,266.727112 
	C183.315643,256.336273 188.749863,246.270203 194.827744,235.011902 
	C190.451141,235.011902 187.086914,235.071564 183.726074,234.990402 
	C181.577301,234.938507 178.965088,235.377548 177.407043,234.333466 
	C175.492874,233.050735 173.277679,230.386078 173.385559,228.440369 
	C173.490082,226.555374 176.305618,223.350815 178.050537,223.268417 
	C188.344391,222.782364 198.678772,222.848724 208.987396,223.147095 
	C212.606430,223.251831 213.838135,226.146118 212.407028,229.307632 
	C209.465179,235.806595 206.265961,242.195587 202.986816,248.533691 
	C198.652863,256.910583 194.140671,265.195251 189.042389,274.763275 
	C194.906616,274.763275 199.625992,274.751862 204.345306,274.765869 
	C211.960358,274.788422 214.301254,276.224182 214.224594,280.792633 
	C214.149155,285.288116 211.470886,286.961945 204.233505,286.974670 
	C195.742706,286.989594 187.250443,287.069153 178.761429,286.943604 
	C170.989975,286.828644 169.227173,283.925781 172.520599,276.825836 
	C174.059830,273.507507 175.851288,270.306213 177.704926,266.727112 
z"/>
<path fill="#ED7021" opacity="1.000000" stroke="none" 
	d="
M139.095535,239.991135 
	C139.871735,238.373138 140.477295,237.097076 141.473343,234.998154 
	C136.510727,234.998154 132.407364,235.058060 128.306442,234.983429 
	C122.811325,234.883438 119.767220,232.548187 120.081718,228.503357 
	C120.457222,223.673981 123.973549,222.840866 127.948792,222.838974 
	C136.272263,222.835022 144.597076,222.755630 152.918793,222.879150 
	C159.847900,222.981979 161.666519,225.271973 158.659256,231.591217 
	C153.517975,242.394730 147.630661,252.843338 142.050400,263.437714 
	C140.283020,266.793152 138.495651,270.138092 136.324142,274.228729 
	C138.493393,274.475983 139.878860,274.747528 141.268570,274.771515 
	C145.927933,274.851929 150.592438,274.740753 155.247879,274.904694 
	C158.567215,275.021576 161.012421,276.360443 161.231583,280.202667 
	C161.455551,284.129639 159.279099,286.588409 155.808258,286.684906 
	C144.836716,286.989990 133.838333,287.077332 122.875946,286.626373 
	C117.879776,286.420837 116.539833,283.118317 119.120842,277.846863 
	C123.362022,269.184723 128.031082,260.731628 132.542313,252.202393 
	C134.642563,248.231506 136.795731,244.288635 139.095535,239.991135 
z"/>
<path fill="#EE7022" opacity="1.000000" stroke="none" 
	d="
M77.845070,228.227173 
	C77.773766,234.002838 74.284027,235.755096 69.654846,235.916245 
	C64.696327,236.088852 59.727146,235.955185 54.347939,235.955185 
	C54.347939,240.708969 54.347939,245.059586 54.347939,250.020370 
	C58.661674,250.020370 62.775963,249.908783 66.881248,250.053131 
	C70.654366,250.185806 73.881615,251.309174 74.087318,255.898026 
	C74.265480,259.872620 71.840881,261.836029 66.821236,262.145782 
	C62.623375,262.404846 56.643932,261.316010 54.719360,263.589172 
	C52.548820,266.152832 53.978317,271.809052 53.936874,276.121155 
	C53.855930,284.543213 50.636169,287.972443 43.539082,286.881561 
	C39.497009,286.260254 36.834488,284.216827 36.845119,279.650360 
	C36.883846,263.018829 36.866051,246.387131 36.859116,229.755508 
	C36.857208,225.173294 39.460320,222.986557 43.703915,222.919128 
	C52.848167,222.773834 61.996758,222.866867 71.143272,222.916916 
	C74.507774,222.935318 76.833809,224.504227 77.845070,228.227173 
z"/>
<path fill="#F2C410" opacity="1.000000" stroke="none" 
	d="
M249.746658,260.999573 
	C249.767609,250.834198 249.724319,241.168076 249.827988,231.503540 
	C249.898178,224.959671 252.044113,222.803085 258.555725,222.737030 
	C265.386169,222.667709 272.233185,222.539810 279.046478,222.916519 
	C286.622559,223.335434 294.400482,224.053650 297.310272,232.963531 
	C299.773132,240.504852 296.428436,247.560043 287.976318,253.458130 
	C296.652954,256.675781 300.046936,260.786285 299.799866,267.777832 
	C299.483856,276.721130 294.147186,284.308655 285.165283,285.579041 
	C275.513123,286.944244 265.602783,286.778687 255.809341,286.706451 
	C251.854477,286.677307 249.710022,283.578125 249.691010,279.496216 
	C249.663055,273.497528 249.722687,267.498413 249.746658,260.999573 
M265.978302,260.738373 
	C265.978302,265.662842 265.978302,270.587311 265.978302,276.222870 
	C269.966919,275.857239 273.256378,275.819000 276.432373,275.199432 
	C280.621277,274.382324 283.087189,271.533325 283.601776,267.305298 
	C284.059875,263.541534 282.964569,259.735016 279.217682,258.749207 
	C275.124237,257.672241 270.636108,258.085144 266.316864,257.948517 
	C266.226166,257.945587 266.097107,259.155090 265.978302,260.738373 
M266.004761,242.442245 
	C266.004761,244.221863 266.004761,246.001495 266.004761,247.978256 
	C271.619446,248.410492 276.908173,249.026047 280.051666,244.143997 
	C281.214172,242.338577 281.382355,238.399475 280.179626,236.845520 
	C276.619965,232.246368 271.296234,234.042343 266.008545,234.078064 
	C266.008545,236.897202 266.008545,239.194229 266.004761,242.442245 
z"/>
<path fill="#EF7122" opacity="1.000000" stroke="none" 
	d="
M90.840897,224.852539 
	C100.136589,219.951813 106.034477,223.264267 106.045815,232.966156 
	C106.063522,248.122330 106.118301,263.279022 106.012558,278.434509 
	C105.963028,285.533173 99.218597,289.600189 93.112137,285.929138 
	C91.107727,284.724182 89.167793,281.558990 89.119690,279.250183 
	C88.779831,262.935303 88.892715,246.609650 89.011490,230.288544 
	C89.023979,228.571854 90.011856,226.862274 90.840897,224.852539 
z"/>
<path fill="#EEDBB2" opacity="1.000000" stroke="none" 
	d="
M64.587700,124.989098 
	C64.885231,125.177605 64.847954,125.355988 64.819275,125.807617 
	C61.505238,128.066071 60.922119,125.691498 60.250122,122.807106 
	C61.752537,123.622299 63.002716,124.300636 64.587700,124.989098 
z"/>
<path fill="#EEDBB2" opacity="1.000000" stroke="none" 
	d="
M63.831417,141.607269 
	C63.494835,142.141876 63.029629,142.409012 62.285400,142.744507 
	C61.801456,141.762604 61.596539,140.712341 61.121353,138.276871 
	C62.580708,140.008423 63.141750,140.674118 63.831417,141.607269 
z"/>
<path fill="#EEDBB2" opacity="1.000000" stroke="none" 
	d="
M54.535454,126.266327 
	C54.234737,125.504120 54.133080,124.547958 54.031418,123.591797 
	C54.435207,123.604431 54.838997,123.617058 55.242790,123.629692 
	C55.073364,124.443916 54.903938,125.258148 54.535454,126.266327 
z"/>
<path fill="#EEDBB2" opacity="1.000000" stroke="none" 
	d="
M43.449230,139.158966 
	C43.614529,138.835190 43.900875,138.658844 44.187218,138.482483 
	C43.981571,138.757126 43.775925,139.031754 43.449230,139.158966 
z"/>
<path fill="#252016" opacity="1.000000" stroke="none" 
	d="
M462.957275,319.302490 
	C466.907684,315.958557 471.115387,312.999847 475.679138,310.071869 
	C476.031616,311.130341 476.027985,312.158051 475.716034,313.666382 
	C472.855255,316.226654 470.302826,318.306274 467.750397,320.385895 
	C466.238464,320.153137 464.726501,319.920410 462.957275,319.302490 
z"/>
<path fill="#EDBD39" opacity="1.000000" stroke="none" 
	d="
M467.911530,320.637329 
	C470.302826,318.306274 472.855255,316.226654 475.754150,314.050720 
	C476.391724,315.052948 476.682892,316.151428 476.702637,317.751404 
	C476.080841,319.165375 475.730499,320.077881 475.380127,320.990417 
	C475.287079,321.165771 475.194000,321.341125 474.658661,321.853912 
	C473.478882,322.220581 472.741333,322.249817 472.003815,322.279053 
	C470.693420,321.815613 469.383057,321.352173 467.911530,320.637329 
z"/>
<path fill="#FAFAFA" opacity="1.000000" stroke="none" 
	d="
M482.107361,330.081482 
	C482.178741,330.469971 482.027191,330.874573 481.818542,330.930603 
	C479.417480,328.576019 477.225037,326.165344 475.042664,323.395508 
	C477.099579,321.681854 478.675537,321.904449 479.680023,324.341217 
	C480.422638,326.142761 481.247711,327.910309 482.107361,330.081482 
z"/>
<path fill="#FAFAFA" opacity="1.000000" stroke="none" 
	d="
M472.066803,322.549866 
	C472.741333,322.249817 473.478882,322.220581 474.580322,322.141205 
	C474.944214,322.091064 474.967621,322.527130 474.957733,322.745117 
	C474.008484,322.915619 473.069153,322.868164 472.066803,322.549866 
z"/>
<path fill="#FAFAFA" opacity="1.000000" stroke="none" 
	d="
M475.701447,320.980774 
	C475.730499,320.077881 476.080841,319.165375 476.705383,318.120239 
	C476.660645,318.982147 476.341705,319.976624 475.701447,320.980774 
z"/>
<path fill="#F7B12F" opacity="1.000000" stroke="none" 
	d="
M57.806801,163.280121 
	C58.785107,157.766968 60.266403,152.631424 67.111702,150.990891 
	C68.417999,157.282166 69.679008,163.355286 70.562508,169.759613 
	C67.442070,169.065948 64.699135,168.041092 61.956196,167.016235 
	C61.956196,167.016235 62.001381,166.997437 62.114113,166.695984 
	C60.753498,165.356400 59.280151,164.318253 57.806801,163.280121 
z"/>
<path fill="#5E4322" opacity="1.000000" stroke="none" 
	d="
M62.044529,167.350540 
	C64.699135,168.041092 67.442070,169.065948 70.526787,170.216949 
	C70.779648,170.664597 70.727829,170.991974 70.678268,171.572891 
	C67.806572,170.441971 64.969719,169.063416 62.044529,167.350540 
z"/>
<path fill="#5E4322" opacity="1.000000" stroke="none" 
	d="
M57.501881,163.206848 
	C59.280151,164.318253 60.753498,165.356400 62.107529,166.719543 
	C60.558212,166.433182 59.128212,165.821808 57.381798,165.086624 
	C56.689976,164.507324 56.314575,164.051819 55.948601,163.298203 
	C56.371002,163.044586 56.783981,163.089081 57.501881,163.206848 
z"/>
<path fill="#EFDDB3" opacity="1.000000" stroke="none" 
	d="
M70.370644,142.819031 
	C70.404984,141.908020 70.804871,141.095840 71.204758,140.283661 
	C71.791969,140.895340 72.379173,141.507034 72.980576,142.457962 
	C72.241905,142.837418 71.489044,142.877625 70.370644,142.819031 
z"/>
<path fill="#5E4322" opacity="1.000000" stroke="none" 
	d="
M55.869667,162.768600 
	C55.398041,162.841614 54.776371,162.646469 54.108059,162.107849 
	C54.614151,162.009720 55.166885,162.255081 55.869667,162.768600 
z"/>
<path fill="#969593" opacity="1.000000" stroke="none" 
	d="
M72.968750,172.792587 
	C72.747124,172.943100 72.506760,172.785217 72.227020,172.341614 
	C72.468033,172.136002 72.722153,172.278763 72.968750,172.792587 
z"/>
<path fill="#C2C1BB" opacity="1.000000" stroke="none" 
	d="
M107.380760,177.977921 
	C117.665611,173.667969 127.950455,169.358032 138.570496,164.950256 
	C138.905701,164.852432 139.352371,165.017303 139.585541,165.054565 
	C141.198853,168.179260 142.578995,171.266678 143.771011,175.005630 
	C139.846268,177.788345 136.109665,179.919525 132.373062,182.050690 
	C129.490387,182.908478 126.610771,183.776672 123.724342,184.621628 
	C119.181770,185.951370 114.634598,187.265442 109.621887,188.164505 
	C108.321877,184.919388 107.489357,182.095932 106.764374,179.102188 
	C107.041534,178.613922 107.211143,178.295914 107.380760,177.977921 
z"/>
<path fill="#F8B22F" opacity="1.000000" stroke="none" 
	d="
M132.180740,182.364975 
	C136.109665,179.919525 139.846268,177.788345 143.782883,175.392517 
	C144.152298,175.109589 144.321701,175.091309 144.744263,175.109314 
	C146.267548,178.693924 147.195328,182.414841 148.879044,185.754684 
	C152.397675,192.734268 150.833908,198.704529 146.039352,204.663574 
	C146.001740,205.016434 146.002487,204.996445 145.713211,205.005402 
	C144.940002,205.325409 144.456070,205.636444 143.972137,205.947479 
	C143.972137,205.947479 143.987640,206.004517 143.684204,205.995972 
	C142.914429,206.288391 142.448105,206.589355 141.981766,206.890305 
	C137.186066,208.863022 132.390381,210.835724 127.220390,212.814178 
	C118.646339,208.667252 114.844093,201.219543 111.873489,193.077728 
	C111.548843,192.187958 110.228844,191.661362 108.977707,190.904877 
	C116.386078,188.122040 124.187248,185.400650 132.180740,182.364975 
z"/>
<path fill="#DCDBDA" opacity="1.000000" stroke="none" 
	d="
M106.656830,179.272461 
	C107.489357,182.095932 108.321877,184.919388 109.214554,188.168091 
	C103.892952,190.400742 104.737274,185.285461 103.121513,182.977921 
	C102.054390,181.453903 101.806007,179.905853 104.915749,179.412598 
	C105.854027,179.264114 106.255424,179.268280 106.656830,179.272461 
z"/>
<path fill="#FCCE78" opacity="1.000000" stroke="none" 
	d="
M106.764374,179.102173 
	C106.255424,179.268280 105.854027,179.264114 105.262314,179.246857 
	C100.822426,178.622635 99.494408,175.385818 98.406143,171.557922 
	C98.671478,171.177307 98.929230,171.015457 99.207489,170.532349 
	C99.847771,169.987946 100.401840,169.660126 101.262321,169.277435 
	C103.338661,171.974518 105.108589,174.726486 107.129639,177.728180 
	C107.211143,178.295914 107.041534,178.613922 106.764374,179.102173 
z"/>
<path fill="#EB882C" opacity="1.000000" stroke="none" 
	d="
M142.274704,206.898178 
	C142.448105,206.589355 142.914429,206.288391 143.666306,205.972015 
	C143.490448,206.273056 143.029053,206.589554 142.274704,206.898178 
z"/>
<path fill="#EB882C" opacity="1.000000" stroke="none" 
	d="
M144.277206,205.945343 
	C144.456070,205.636444 144.940002,205.325409 145.722107,205.009201 
	C145.540955,205.317078 145.061615,205.630142 144.277206,205.945343 
z"/>
<path fill="#EFDDB3" opacity="1.000000" stroke="none" 
	d="
M75.516342,140.527954 
	C75.481049,140.545517 75.551636,140.510406 75.516342,140.527954 
z"/>
<path fill="#EFDDB3" opacity="1.000000" stroke="none" 
	d="
M55.857643,149.985504 
	C55.793636,149.977448 55.516109,149.637680 55.516109,149.637680 
	C55.516109,149.637680 55.870499,149.676132 55.927681,149.778595 
	C55.984867,149.881073 55.921650,149.993546 55.857643,149.985504 
z"/>
<path fill="#803A07" opacity="1.000000" stroke="none" 
	d="
M265.982117,260.268677 
	C266.097107,259.155090 266.226166,257.945587 266.316864,257.948517 
	C270.636108,258.085144 275.124237,257.672241 279.217682,258.749207 
	C282.964569,259.735016 284.059875,263.541534 283.601776,267.305298 
	C283.087189,271.533325 280.621277,274.382324 276.432373,275.199432 
	C273.256378,275.819000 269.966919,275.857239 265.978302,276.222870 
	C265.978302,270.587311 265.978302,265.662842 265.982117,260.268677 
M269.683899,265.565491 
	C269.683899,267.652924 269.683899,269.740387 269.683899,272.672974 
	C272.879669,271.947601 275.765259,272.074097 277.366608,270.701935 
	C278.866516,269.416595 280.244995,265.679871 279.466583,264.564453 
	C278.164795,262.699066 275.208221,261.677765 272.755188,261.008820 
	C269.979645,260.252014 269.539246,262.400024 269.683899,265.565491 
z"/>
<path fill="#7B3203" opacity="1.000000" stroke="none" 
	d="
M266.006653,241.966766 
	C266.008545,239.194229 266.008545,236.897202 266.008545,234.078064 
	C271.296234,234.042343 276.619965,232.246368 280.179626,236.845520 
	C281.382355,238.399475 281.214172,242.338577 280.051666,244.143997 
	C276.908173,249.026047 271.619446,248.410492 266.004761,247.978256 
	C266.004761,246.001495 266.004761,244.221863 266.006653,241.966766 
M269.327148,243.031631 
	C271.177246,247.240799 273.858887,244.228333 275.845886,243.423706 
	C276.867065,243.010162 277.146759,240.765610 277.761566,239.348495 
	C275.230011,238.425507 272.698486,237.502502 269.581818,236.366165 
	C269.439331,239.277817 269.367432,240.746628 269.327148,243.031631 
z"/>
<path fill="#A6A6A6" opacity="1.000000" stroke="none" 
	d="
M269.684784,265.093292 
	C269.539246,262.400024 269.979645,260.252014 272.755188,261.008820 
	C275.208221,261.677765 278.164795,262.699066 279.466583,264.564453 
	C280.244995,265.679871 278.866516,269.416595 277.366608,270.701935 
	C275.765259,272.074097 272.879669,271.947601 269.683899,272.672974 
	C269.683899,269.740387 269.683899,267.652924 269.684784,265.093292 
z"/>
<path fill="#969593" opacity="1.000000" stroke="none" 
	d="
M269.311340,242.623535 
	C269.367432,240.746628 269.439331,239.277817 269.581818,236.366165 
	C272.698486,237.502502 275.230011,238.425507 277.761566,239.348495 
	C277.146759,240.765610 276.867065,243.010162 275.845886,243.423706 
	C273.858887,244.228333 271.177246,247.240799 269.311340,242.623535 
z"/>
</svg>